<svg height="512pt" viewBox="-63 0 512 512.00203" width="512pt" xmlns="http://www.w3.org/2000/svg"><path d="m344.121094 442.6875c-99.484375 16.46875-202.34375 16.46875-301.828125 0-30.226563-5-44.429688-31.984375-27.277344-51.917969 15.460937-17.980469 31.015625-36.351562 46.640625-55.136719 31.191406-37.46875 62.667969-76.542968 94.214844-117.222656 16.914062-21.804687 57.757812-21.804687 74.671875 0 31.546875 40.679688 63.023437 79.753906 94.210937 117.222656 15.628906 18.785157 31.183594 37.15625 46.644532 55.136719 17.152343 19.933594 2.9375 46.917969-27.277344 51.917969zm0 0" fill="#9fd661"/><path d="m324.753906 335.632812c-1.15625.296876-2.355468.539063-3.585937.742188-84.355469 13.960938-171.578125 13.960938-255.933594 0-1.21875-.203125-2.417969-.445312-3.578125-.742188 31.191406-37.46875 62.667969-76.542968 94.214844-117.222656 16.914062-21.804687 57.757812-21.804687 74.671875 0 31.546875 40.679688 63.023437 79.753906 94.210937 117.222656zm0 0" fill="#8bc34c"/><path d="m321.167969 305.894531c-84.355469 13.960938-171.578125 13.960938-255.933594 0-25.621094-4.246093-37.664063-27.125-23.125-44.019531 19.140625-22.261719 38.457031-45.242188 57.882813-68.964844 20.429687-24.921875 40.972656-50.65625 61.558593-77.195312 14.332031-18.492188 48.96875-18.492188 63.3125 0 20.585938 26.539062 41.117188 52.273437 61.550781 77.195312 19.425782 23.722656 38.746094 46.703125 57.890626 68.964844 14.535156 16.894531 2.488281 39.773438-23.136719 44.019531zm0 0" fill="#9fd661"/><path d="m286.414062 192.910156c-61.519531 9.609375-124.90625 9.609375-186.421874 0 20.429687-24.921875 40.972656-50.65625 61.558593-77.195312 14.332031-18.492188 48.96875-18.492188 63.3125 0 20.585938 26.539062 41.117188 52.273437 61.550781 77.195312zm0 0" fill="#8bc34c"/><path d="m168.816406 18.304688c-30.9375 39.890624-61.757812 77.417968-92.003906 112.582031-11.199219 13.019531-1.921875 30.644531 17.816406 33.914062 64.984375 10.753907 132.171875 10.753907 197.152344 0 19.738281-3.269531 29.015625-20.894531 17.816406-33.914062-30.242187-35.164063-61.066406-72.691407-92.003906-112.582031-11.050781-14.246094-37.726562-14.246094-48.777344 0zm0 0" fill="#9fd661"/><g fill="#8bc34c"><path d="m191.234375 7.65625v.007812s-93.40625 157.367188-46.15625 163.269532c-16.914063-1.332032-33.757813-3.382813-50.453125-6.148438-19.738281-3.261718-29.023438-20.886718-17.820312-33.910156 30.246093-35.164062 61.0625-72.683594 92.007812-112.582031 5.132812-6.625 13.664062-10.179688 22.421875-10.636719zm0 0"/><path d="m157.808594 196.484375-19.808594 59.425781-19.214844 56.925782c-17.941406-1.699219-35.8125-4.015626-53.550781-6.949219-25.621094-4.238281-37.671875-27.117188-23.132813-44.023438 17.644532-20.523437 35.445313-41.664062 53.347657-63.417969 4.753906-5.78125 9.519531-11.613281 14.285156-17.484374zm0 0"/><path d="m110.8125 451.375c.007812 0 .019531.007812.027344.007812-22.96875-2.042968-45.847656-4.9375-68.554688-8.695312-30.21875-5.007812-44.429687-31.992188-27.28125-51.925781 14.144532-16.441407 28.355469-33.214844 42.632813-50.324219 8.726562-10.441406 17.460937-21.007812 26.21875-31.707031l1.027343-1.617188 50.066407 28.042969s-95.519531 95.289062-24.136719 116.21875zm0 0"/></g><path d="m244.253906 492.765625c-16.132812 7.742187-33.597656 11.613281-51.054687 11.613281-3.667969 0-7.34375-.171875-11-.515625-13.738281-1.28125-27.3125-4.980469-40.050781-11.097656l6.777343-39.050781h88.550781l3.179688 18.328125zm0 0" fill="#7f4a26"/><path d="m244.253906 492.765625c-16.132812 7.742187-33.597656 11.613281-51.054687 11.613281-3.667969 0-7.34375-.171875-11-.515625v-31.820312h58.457031zm0 0" fill="#935d35"/><path d="m139.890625 328.273438c0 21.039062-17.054687 38.097656-38.097656 38.097656-21.039063 0-38.097657-17.058594-38.097657-38.097656 0-21.039063 17.058594-38.097657 38.097657-38.097657 21.042969 0 38.097656 17.058594 38.097656 38.097657zm0 0" fill="#ef5361"/><path d="m323.066406 231.328125c0 21.042969-17.054687 38.097656-38.097656 38.097656-21.039062 0-38.097656-17.054687-38.097656-38.097656 0-21.039063 17.058594-38.097656 38.097656-38.097656 21.042969 0 38.097656 17.058593 38.097656 38.097656zm0 0" fill="#ef5361"/><path d="m185.675781 85.449219c0 21.039062-17.054687 38.097656-38.09375 38.097656-21.042969 0-38.097656-17.058594-38.097656-38.097656 0-21.039063 17.054687-38.097657 38.097656-38.097657 21.039063 0 38.09375 17.058594 38.09375 38.097657zm0 0" fill="#ef5361"/><path d="m113.597656 364.496094c-3.710937 1.21875-7.679687 1.871094-11.796875 1.871094-21.039062 0-38.097656-17.058594-38.097656-38.089844 0-21.039063 17.058594-38.097656 38.097656-38.097656 4.117188 0 8.085938.648437 11.796875 1.867187-15.261718 4.96875-26.292968 19.316406-26.292968 36.230469 0 16.917968 11.03125 31.25 26.292968 36.21875zm0 0" fill="#dc4250"/><path d="m296.777344 267.550781c-3.71875 1.222657-7.679688 1.871094-11.804688 1.871094-21.042968 0-38.101562-17.046875-38.101562-38.089844 0-21.039062 17.058594-38.097656 38.101562-38.097656 4.125 0 8.085938.648437 11.804688 1.867187-15.257813 4.96875-26.292969 19.316407-26.292969 36.230469 0 16.917969 11.035156 31.261719 26.292969 36.21875zm0 0" fill="#dc4250"/><path d="m159.386719 121.679688c-3.71875 1.21875-7.691407 1.867187-11.804688 1.867187-21.042969 0-38.101562-17.058594-38.101562-38.097656 0-21.042969 17.058593-38.097657 38.101562-38.097657 4.113281 0 8.085938.648438 11.804688 1.867188-15.257813 4.96875-26.292969 19.3125-26.292969 36.230469 0 16.914062 11.035156 31.261719 26.292969 36.230469zm0 0" fill="#dc4250"/><path d="m377.175781 385.800781c-5.738281-6.671875-11.515625-13.429687-17.171875-20.085937-2.726562-3.207032-7.535156-3.597656-10.742187-.871094-3.203125 2.722656-3.597657 7.53125-.871094 10.738281 5.675781 6.679688 11.472656 13.460938 17.230469 20.15625 5.320312 6.1875 6.867187 13.410157 4.351562 20.335938-3.484375 9.589843-13.871094 16.90625-27.109375 19.09375-99.304687 16.441406-200.019531 16.441406-299.335937 0-13.234375-2.1875-23.617188-9.503907-27.097656-19.089844-2.515626-6.925781-.96875-14.148437 4.351562-20.339844 13.535156-15.738281 26.953125-31.570312 40.039062-47.214843 7.480469 15.074218 23.03125 25.46875 40.972657 25.46875 25.207031 0 45.71875-20.511719 45.71875-45.71875 0-1.90625-.132813-3.78125-.359375-5.628907 15.351562.890625 30.722656 1.34375 46.097656 1.34375 35.539062 0 71.046875-2.382812 106.117188-7.121093 9.945312 12.125 20.097656 24.371093 30.234374 36.460937 1.507813 1.796875 3.667969 2.722656 5.84375 2.722656 1.726563 0 3.464844-.582031 4.890626-1.78125 3.226562-2.703125 3.648437-7.507812.945312-10.734375-8.128906-9.691406-16.273438-19.488281-24.308594-29.242187 1.832032-.289063 3.648438-.582031 5.441406-.878907 16.234376-2.691406 29.234376-12.382812 33.917969-25.289062 3.886719-10.707031 1.605469-22.089844-6.253906-31.230469-6.839844-7.953125-13.230469-15.445312-19.480469-22.835937.054688-.90625.085938-1.8125.085938-2.730469 0-23.304687-17.535156-42.582031-40.101563-45.359375-3.335937-4.078125-6.523437-7.992188-9.605469-11.785156 4.039063-.585938 8.058594-1.207032 12.039063-1.867188 13.128906-2.171875 23.660156-10.0625 27.488281-20.59375 3.21875-8.863281 1.347656-18.269531-5.132812-25.808594-31.574219-36.707031-62.449219-74.484374-91.761719-112.28125-6.621094-8.535156-17.988281-13.632812-30.40625-13.632812s-23.785156 5.097656-30.410156 13.632812c-6.84375 8.820313-13.820313 17.703126-20.773438 26.449219-22.59375 2.753907-40.15625 22.042969-40.15625 45.367188 0 1.28125.066407 2.542969.171875 3.800781-10.339844 12.433594-20.757812 24.761719-31.007812 36.667969-6.480469 7.535156-8.347656 16.941406-5.128906 25.804687 3.828124 10.535156 14.359374 18.425782 27.480468 20.59375 3.984375.660156 8.007813 1.28125 12.042969 1.867188-9.714844 11.976562-19.585937 23.992187-29.453125 35.851562-2.691406 3.234375-2.25 8.039063.984375 10.730469 1.425781 1.1875 3.152344 1.765625 4.871094 1.765625 2.183593 0 4.351562-.9375 5.859375-2.746094 11.917968-14.324218 23.835937-28.875 35.484375-43.3125 23.25 2.671875 46.640625 4.023438 70.035156 4.023438 23.386719 0 46.78125-1.355469 70.023437-4.023438 2.878907 3.566406 5.835938 7.21875 8.90625 10.988282-18.976562 5.5625-32.878906 23.117187-32.878906 43.871093 0 25.207031 20.507813 45.71875 45.714844 45.71875 17.804688 0 33.253906-10.238281 40.800781-25.128906 4.125 4.847656 8.34375 9.78125 12.753907 14.914063 4.292968 4.984374 5.496093 10.550781 3.484374 16.089843-2.808593 7.742188-11.269531 13.664063-22.085937 15.453125-5.949219.988282-12.148437 1.9375-18.425781 2.816406-52.507813 7.390626-106.050782 9.351563-159.21875 5.871094-7.65625-14.554687-22.925782-24.507812-40.480469-24.507812-13.839844 0-26.25 6.1875-34.640625 15.929687-.226562-.035156-.449219-.070312-.675781-.109375-10.8125-1.792968-19.273438-7.710937-22.082031-15.453125-2.011719-5.539062-.808594-11.105469 3.480468-16.09375 5.835938-6.785156 11.710938-13.667969 17.46875-20.453125 2.71875-3.210937 2.324219-8.019531-.886718-10.742187-3.210938-2.722657-8.019532-2.324219-10.738282.886719-5.734375 6.757812-11.585937 13.613281-17.398437 20.375-7.859375 9.136718-10.140625 20.519531-6.253907 31.226562 4.1875 11.542969 15.03125 20.496094 28.886719 24.1875-1.859375 4.972656-2.878906 10.351562-2.878906 15.960938 0 .699218.019531 1.394531.050781 2.085937-15.226562 18.300781-30.984375 36.9375-46.902344 55.445313-8.9375 10.394531-11.535156 23.324218-7.121093 35.472656 5.359375 14.757812 20.277343 25.84375 38.933593 28.929687 32.839844 5.4375 65.820313 9.089844 98.851563 10.992188l-5.25 30.269531c-.582031 3.359375 1.136719 6.695312 4.210937 8.171875 16.855469 8.085937 35.648438 12.363281 54.351563 12.363281 18.699219 0 37.492187-4.277344 54.347656-12.363281 3.074219-1.476563 4.796875-4.8125 4.210938-8.171875l-5.25-30.269531c33.03125-1.902344 66.019531-5.558594 98.84375-10.992188 18.660156-3.085937 33.582031-14.171875 38.945312-28.929687 4.410157-12.148438 1.8125-25.082032-7.125-35.476563zm-229.59375-330.828125c16.804688 0 30.476563 13.671875 30.476563 30.476563 0 16.804687-13.671875 30.476562-30.476563 30.476562-16.808593 0-30.480469-13.671875-30.480469-30.476562 0-16.804688 13.671876-30.476563 30.480469-30.476563zm-26.789062 105.886719c-8.324219-1.011719-16.707031-2.214844-24.925781-3.582031-7.703126-1.269532-13.695313-5.394532-15.644532-10.761719-1.324218-3.640625-.507812-7.328125 2.359375-10.660156 8.136719-9.457031 16.386719-19.175781 24.613281-29.003907 7.691407 14.449219 22.902344 24.3125 40.382813 24.3125 25.207031 0 45.71875-20.507812 45.71875-45.714843 0-20.796875-13.964844-38.378907-33-43.902344 4.875-6.179687 9.738281-12.390625 14.535156-18.574219 3.761719-4.839844 10.628907-7.734375 18.371094-7.734375s14.609375 2.894531 18.367187 7.734375c29.46875 38 60.507813 75.976563 92.25 112.878906 2.867188 3.335938 3.683594 7.027344 2.363282 10.667969-1.949219 5.363281-7.945313 9.488281-15.652344 10.761719-8.214844 1.363281-16.597656 2.570312-24.921875 3.582031-48.046875 5.855469-96.769531 5.855469-144.816406-.003906zm164.175781 100.945313c-16.804688 0-30.476562-13.671876-30.476562-30.476563s13.671874-30.476563 30.476562-30.476563 30.480469 13.671876 30.480469 30.476563-13.675781 30.476563-30.480469 30.476563zm-183.171875 35.992187c16.804687 0 30.476563 13.671875 30.476563 30.476563 0 16.804687-13.671876 30.476562-30.476563 30.476562-16.808594 0-30.480469-13.671875-30.480469-30.476562 0-16.804688 13.671875-30.476563 30.480469-30.476563zm133.9375 190.4375c-13.417969 5.589844-28.007813 8.527344-42.535156 8.527344-14.523438 0-29.113281-2.9375-42.53125-8.527344l4.558593-26.269531c12.652344.515625 25.3125.777344 37.972657.777344 12.660156 0 25.320312-.261719 37.976562-.78125zm0 0"/></svg>