<svg height="511pt" viewBox="-60 1 511 511.99898" width="511pt" xmlns="http://www.w3.org/2000/svg"><g fill="#beccd3"><path d="m19.953125 390.5625c-33.152344-14.179688 10.46875-64.429688 43.09375-84.828125l115.660156-39.015625-111.183593 129.460938zm0 0"/><path d="m173.675781 18.296875c-24.828125-38.238281-125.953125 93.066406-91.953125 112.523437l83.277344-2.703124"/><path d="m99.53125 164.714844c-42.625 19.839844-70.984375 78.53125-52.496094 97.019531l47.902344 17.167969 56.355469-135.554688"/></g><path d="m348.886719 442.460938c-4.003907.660156-8.011719 1.300781-12.035157 1.902343l-38.617187-49.972656v54.996094c-60.507813 6.570312-121.832031 7.160156-182.492187 1.769531-22.960938-2.042969-45.828126-4.9375-68.523438-8.695312-30.199219-5.003907-44.40625-31.972657-27.265625-51.898438 14.136719-16.429688 28.34375-33.195312 42.609375-50.292969 8.722656-10.4375 17.457031-21 26.207031-31.691406l1.027344-1.617187 60.703125-95.335938 156.832031 96.960938c8.328125 10.167968 16.632813 20.21875 24.921875 30.148437 14.710938 17.640625 29.34375 34.914063 43.894532 51.828125 17.140624 19.925781 2.945312 46.894531-27.261719 51.898438zm0 0" fill="#4dc168"/><path d="m332.253906 338.734375c-2.84375 1.128906-5.941406 1.992187-9.273437 2.539063-84.3125 13.953124-171.484375 13.953124-255.796875 0-1.59375-.261719-3.140625-.597657-4.621094-1.003907 8.722656-10.4375 17.457031-21 26.207031-31.691406l61.730469-96.953125 156.832031 96.960938c8.328125 10.167968 16.632813 20.21875 24.921875 30.148437zm0 0" fill="#3dad52"/><path d="m325.957031 305.734375c-55.363281 9.160156-111.953125 12.308594-168.15625 9.441406l-14.917969-59.390625-19.203124 56.894532c-17.929688-1.695313-35.792969-4.011719-53.523438-6.945313-25.609375-4.234375-37.652344-27.101563-23.121094-44 17.640625-20.511719 35.429688-41.640625 53.320313-63.382813 4.753906-5.777343 9.515625-11.605468 14.277343-17.476562 3.382813-4.152344 6.765626-8.335938 10.144532-12.539062l62.042968-62.042969 84.515626 62.042969c8.15625 10.132812 16.296874 20.136718 24.410156 30.015624 17.894531 21.742188 35.683594 42.871094 53.320312 63.382813 14.53125 16.898437 2.5 39.765625-23.109375 44zm0 0" fill="#4dc168"/><path d="m249.078125 492.777344c-16.125 7.738281-33.582031 11.605468-51.027344 11.605468-3.664062 0-7.339843-.171874-10.996093-.515624-13.726563-1.28125-27.292969-4.976563-40.027344-11.089844l6.773437-39.03125h88.503907l3.179687 18.316406zm0 0" fill="#7f4a26"/><path d="m295.746094 198.351562c-64.40625 10.582032-130.988282 10.570313-195.390625 0 8.125-9.878906 16.269531-19.882812 24.421875-30.015624l62.042968-62.042969 84.515626 62.042969c8.15625 10.132812 16.296874 20.136718 24.410156 30.015624zm0 0" fill="#3dad52"/><path d="m162.683594 196.390625-19.800782 59.394531-19.203124 56.894532c-17.929688-1.695313-35.792969-4.011719-53.523438-6.945313-25.609375-4.234375-37.652344-27.101563-23.121094-44 17.640625-20.511719 35.429688-41.640625 53.320313-63.382813 4.753906-5.777343 9.515625-11.605468 14.277343-17.476562zm0 0" fill="#3dad52"/><path d="m115.710938 451.144531c.007812 0 .019531.011719.03125.011719-22.960938-2.042969-45.828126-4.9375-68.523438-8.695312-30.199219-5.003907-44.40625-31.972657-27.265625-51.898438 14.136719-16.429688 28.34375-33.195312 42.609375-50.292969 8.722656-10.4375 17.457031-21 26.207031-31.691406l1.027344-1.617187 50.039063 28.027343s-95.46875 95.238281-24.125 116.15625zm0 0" fill="#3dad52"/><path d="m296.582031 164.710938c-45.769531 7.574218-92.640625 9.820312-139.054687 6.699218-.023438 0-.042969 0-.074219-.007812-1.816406-.113282-3.632813-.234375-5.449219-.386719-.011718 0-.011718 0-.023437 0-.660157-.039063-1.328125-.089844-1.988281-.152344-.011719 0-.019532 0-.03125-.011719-16.90625-1.328124-33.742188-3.378906-50.425782-6.140624-19.730468-3.261719-29.011718-20.878907-17.8125-33.894532 30.230469-35.144531 61.027344-72.644531 91.960938-112.523437 5.125-6.621094 13.65625-10.171875 22.410156-10.628907 10.0625-.519531 20.429688 3.015626 26.339844 10.628907 30.917968 39.878906 61.71875 77.378906 91.945312 112.523437 11.203125 13.015625 1.921875 30.632813-17.796875 33.894532zm0 0" fill="#4dc168"/><path d="m196.09375 7.664062v.007813s-93.359375 157.28125-46.132812 163.179687c-16.90625-1.328124-33.742188-3.378906-50.425782-6.140624-19.730468-3.261719-29.011718-20.878907-17.8125-33.894532 30.230469-35.144531 61.027344-72.644531 91.960938-112.523437 5.125-6.621094 13.65625-10.171875 22.410156-10.628907zm0 0" fill="#3dad52"/><path d="m249.078125 492.777344c-16.125 7.738281-33.582031 11.605468-51.027344 11.605468-3.664062 0-7.339843-.171874-10.996093-.515624v-31.804688h58.429687zm0 0" fill="#935d35"/><path d="m152.003906 171.015625c2.078125.070313 3.898438.203125 5.449219.386719-1.816406-.113282-3.632813-.234375-5.449219-.386719zm0 0" fill="#3dad52"/><path d="m293.414062 279.160156c-34.738281 2.425782-70.472656-2.53125-78.148437-15.058594-14.328125-23.367187 3.261719-56.5625 45.238281-59.863281 0 0 21.527344-4.507812 45.480469-1.746093 22.738281 2.632812 47.65625 11.800781 58.449219 37.574218 9.675781 23.097656-29.976563 36.25-71.019532 39.09375zm0 0" fill="#beccd3"/><path d="m293.414062 279.160156c-21.710937-1.636718-39.570312-6.632812-44.742187-15.058594-14.324219-23.367187 3.273437-56.5625 45.25-59.863281 0 0 4.660156-.972656 12.0625-1.746093 22.738281 2.632812 47.65625 11.800781 58.449219 37.574218 9.675781 23.097656-29.976563 36.25-71.019532 39.09375zm0 0" fill="#dae6ed"/><path d="m248.144531 32.199219c-39.261719 0-92.066406 76.496093-40.496093 98.964843 36.300781 15.820313 105.425781 6.511719 95.332031-34.65625-12.949219-52.800781-54.835938-64.308593-54.835938-64.308593zm0 0" fill="#beccd3"/><path d="m262.839844 137.25c-8.074219-1.175781-15.730469-3.21875-22.308594-6.082031-43.003906-18.734375-13.425781-75.050781 20.359375-93.246094 13.421875 7.71875 33.753906 24.605469 42.089844 58.589844 5.828125 23.761719-14.734375 36.902343-40.140625 40.738281zm0 0" fill="#dae6ed"/><path d="m256.949219 388.277344c0 25.875-23.609375 34.148437-56.46875 36.453125-8.40625.589843-17.414063.785156-26.796875.785156 0 0-26.28125-.964844-57.542969-6.09375-49.65625-8.15625-20.308594-71.761719 48.738281-71.761719 8.398438 0 16.886719.285156 25.152344.976563 35.632812 2.945312 66.917969 13.261719 66.917969 39.640625zm0 0" fill="#beccd3"/><path d="m256.949219 388.277344c0 25.875-23.609375 34.148437-56.46875 36.453125-10.632813-.8125-26.867188-2.375-44.738281-5.308594-46.042969-7.554687-24.167969-62.785156 34.289062-70.785156 35.632812 2.945312 66.917969 13.261719 66.917969 39.640625zm0 0" fill="#dae6ed"/><path d="m381.925781 385.597656c-20.308593-23.617187-40.511719-47.613281-60.183593-71.476562 1.820312-.285156 3.640624-.574219 5.457031-.875 15.269531-2.519532 27.589843-11.101563 32.957031-22.953125 3.246094-7.167969 3.617188-14.953125 1.207031-22.195313 3.792969-2.832031 6.726563-5.933594 8.75-9.28125 4.035157-6.660156 4.5-14.160156 1.347657-21.691406-1.625-3.878906-6.089844-5.703125-9.96875-4.082031-3.878907 1.625-5.707032 6.085937-4.082032 9.964843 1.019532 2.441407 3.734375 8.921876-11.019531 16.476563-15.652344 8.015625-44.164063 12.988281-72.660156 12.644531-29.503907-.34375-48.480469-6.300781-51.976563-12.003906-4.800781-7.832031-5.042968-17.25-.667968-25.835938 6.417968-12.597656 21.378906-20.988281 40.019531-22.453124.320312-.027344.644531-.074219.957031-.136719.546875-.113281 55.113281-11.074219 83.28125 14.207031 3.128906 2.808594 7.945312 2.550781 10.753906-.578125 2.808594-3.132813 2.550782-7.945313-.582031-10.757813-14.992187-13.457031-35.089844-18.597656-53.078125-20.09375-5.53125-6.722656-11.097656-13.539062-16.652344-20.386718 4.011719-.582032 8.023438-1.203125 12.03125-1.867188 13.121094-2.167968 23.652344-10.058594 27.476563-20.589844 3.214843-8.855468 1.34375-18.257812-5.136719-25.789062-3.585938-4.167969-6.886719-8.027344-10.015625-11.703125 1.816406-6.003906 1.917969-12.585937.238281-19.445313-9.222656-37.589843-32.585937-55.84375-45.699218-63.378906-8.035157-4.613281-13.871094-6.289062-14.511719-6.464844-.65625-.179687-1.335938-.273437-2.019531-.273437-3.304688 0-6.699219.46875-10.125 1.328125-3.503907-4.46875-6.609376-8.449219-9.578126-12.28125-6.617187-8.527344-17.972656-13.62109375-30.382812-13.625-.003906 0-.003906 0-.007812 0-9.132813 0-17.6875 2.765625-24.214844 7.617188-2.652344-1.855469-5.671875-3.074219-8.976563-3.589844-10.339843-1.617188-22.945312 3.570312-37.449219 15.414062-3.257812 2.660156-3.742187 7.460938-1.082031 10.71875 1.503907 1.84375 3.695313 2.796875 5.902344 2.796875 1.695313 0 3.398437-.5625 4.8125-1.71875 14.976563-12.226562 22.796875-12.582031 25.46875-12.164062.238281.039062.496094.097656.757813.167969-25.941407 33.28125-53.0625 66.5-80.789063 98.964843-1.230469-14.285156 14.1875-43.945312 35.871094-68.648437 2.773437-3.160156 2.460937-7.972656-.699219-10.746094s-7.972656-2.460938-10.75.699219c-21.46875 24.460937-42.921875 60.691406-39.292969 82.433593.652344 3.917969 2.105469 7.3125 4.234375 10.117188-2.996094 6.171875-3.410156 13.019531-1.027344 19.574219 2.0625 5.6875 6.097657 10.59375 11.425782 14.253906-26.234375 18.011719-43.773438 47.617187-47.695313 69.808594-1.851562 10.492187-.777343 19.375 3.082031 26.121093-4.828124 8.09375-5.8125 17.355469-2.613281 26.164063 2.589844 7.128906 7.722657 13.269531 14.527344 17.792969-10.664063 7.933594-21.3125 17.890625-29.765625 27.980468-9.390625 11.203126-20.34375 27.660157-19.199219 42.425782.394531 5.089844 2.332031 11.546875 8.585938 16.726562-4.710938 8.8125-5.53125 18.707032-2.109375 28.136719 5.351562 14.75 20.265625 25.835937 38.921875 28.929687 7.960937 1.316407 16.066406 2.546876 24.089843 3.65625.355469.050782.707032.074219 1.054688.074219 3.742188 0 7.007812-2.761719 7.535156-6.574219.574219-4.164062-2.335937-8.011718-6.5-8.585937-7.894531-1.09375-15.867187-2.300781-23.691406-3.597656-13.234375-2.191407-23.613281-9.511719-27.09375-19.101563-2.511719-6.917968-.964844-14.132812 4.355469-20.316406 22.273437-25.894531 44.535156-52.398438 66.230469-78.835938 10.308593 1.390626 20.675781 2.589844 31.007812 3.566407 3.519531.332031 6.800781-1.800781 7.933594-5.148438l10.914062-32.335937 8.601563 34.253906c.816406 3.246094 3.65625 5.582031 7 5.75 13.527343.691406 27.0625 1.035156 40.597656 1.035156 35.5625 0 71.070313-2.382812 106.132813-7.113281 21.574218 26.28125 43.835937 52.78125 66.230468 78.828125 5.320313 6.183594 6.867188 13.402344 4.355469 20.320312-3.476563 9.585938-13.859375 16.902344-27.085937 19.097657-2.679688.441406-5.167969.839843-7.511719 1.207031l-35.875-46.421875c-1.992188-2.578125-5.402344-3.601563-8.484375-2.550781-3.085938 1.050781-5.15625 3.949218-5.15625 7.207031v48.136719c-63.511719 6.417968-127.84375 6.203125-191.335938-.644532-4.179687-.457031-7.9375 2.574219-8.390625 6.753907-.449219 4.179687 2.574219 7.9375 6.757813 8.386719 15.683594 1.695312 31.417968 2.972656 47.175781 3.867187l-5.304687 30.585937c-.582032 3.355469 1.136718 6.691407 4.207031 8.167969 16.847656 8.082031 35.632812 12.355469 54.324219 12.355469 18.691406 0 37.472656-4.273438 54.320312-12.355469 3.070312-1.476562 4.789062-4.8125 4.207031-8.167969l-5.304687-30.585937c15.964844-.90625 31.902344-2.207031 47.78125-3.929687 3.867187-.421876 6.792968-3.683594 6.792968-7.574219v-32.6875l24.976563 32.320312c1.6875 2.179688 4.421875 3.28125 7.148437 2.875 3.675782-.546875 7.652344-1.175781 12.15625-1.917969 18.65625-3.089843 33.570313-14.175781 38.921876-28.925781 4.402343-12.144531 1.804687-25.066406-7.128907-35.453125zm-124.832031-341.074218c13.433594 7.722656 31.011719 23.324218 38.488281 53.800781 1.539063 6.269531.8125 11.519531-2.222656 16.046875-5 7.472656-16.539063 13.066406-31.65625 15.347656-17.5625 2.648438-37.109375.527344-51.011719-5.53125-13.75-5.992188-19.132812-16.667969-15.992187-31.726562 5.238281-25.132813 31.835937-51.6875 52.339843-52.625 1.660157.574218 5.378907 2.003906 10.054688 4.6875zm-77.402344-21.5625c3.753906-4.839844 10.617188-7.730469 18.359375-7.730469h.007813c7.738281.003906 14.597656 2.890625 18.34375 7.726562 2.210937 2.851563 4.496094 5.785157 6.957031 8.933594-20.234375 11.324219-38.730469 34.234375-43.570313 57.460937-4.613281 22.128907 4.433594 39.917969 24.816407 48.800782 11.800781 5.140625 26.90625 7.898437 41.996093 7.898437 5.855469 0 11.714844-.414062 17.371094-1.269531h.003906c16.496094-2.492188 29.660157-8.40625 37.886719-16.867188 2.148438 2.515626 4.386719 5.125 6.746094 7.867188 2.867187 3.332031 3.6875 7.015625 2.363281 10.652344-1.945312 5.363281-7.941406 9.488281-15.644531 10.761718-64.546875 10.6875-130.003906 10.6875-194.5625 0-7.695313-1.273437-13.683594-5.394531-15.632813-10.757812-1.320312-3.640625-.503906-7.324219 2.367188-10.660156 31.730469-36.886719 62.75-74.847656 92.191406-112.816406zm-130.144531 215.386718c3.792969-21.453125 24.292969-52.199218 51.164063-65.734375 3.207031.519531 6.410156 1.015625 9.617187 1.480469-19.953125 24.597656-40.511719 49.28125-61.316406 73.628906-.25-2.730468-.082031-5.882812.535156-9.375zm-31.164063 142.347656c-1.996093-1.917968-2.484374-3.957031-2.617187-5.6875-1.039063-13.425781 20.734375-43.375 50.484375-62.28125.878906.191407 1.765625.371094 2.664062.519532 1.8125.300781 3.628907.589844 5.445313.875-18.398437 22.328125-37.171875 44.652344-55.976563 66.574218zm145.429688-72.859374-13.539062-53.90625c-.824219-3.277344-3.710938-5.621094-7.085938-5.753907-3.375-.128906-6.4375 1.972657-7.519531 5.175781l-17.261719 51.15625c-15.742188-1.613281-31.527344-3.726562-47.003906-6.285156-10.804688-1.789062-19.261719-7.703125-22.070313-15.433594-2.007812-5.539062-.804687-11.101562 3.480469-16.085937 25.605469-29.773437 50.894531-60.132813 75.238281-90.300781 23.28125 2.691406 46.640625 4.042968 70.003907 4.042968 23.359374 0 46.726562-1.351562 70.007812-4.042968 4.777344 5.921875 9.582031 11.839844 14.382812 17.714844-11.898437.515624-20.726562 2.125-23.003906 2.574218-23.753906 1.992188-43.144531 13.441406-51.929687 30.683594-6.835938 13.414062-6.378907 28.253906 1.257812 40.710938 10.316407 16.832031 48.738281 19.085937 64.78125 19.277343.886719.007813 1.785157.015625 2.699219.015625 22.085938 0 50.761719-3.109375 71.335938-11.6875.445312 3.304688-.339844 6.179688-1.304688 8.316406-3.265625 7.207032-11.324219 12.519532-21.566406 14.214844-52.855469 8.742188-106.957032 11.972656-160.902344 9.613282zm76.75 180.410156c-13.410156 5.585937-27.992188 8.519531-42.511719 8.519531-14.515625 0-29.097656-2.933594-42.507812-8.519531l4.613281-26.597656c12.625.511718 25.261719.765624 37.898438.765624 12.632812 0 25.269531-.253906 37.894531-.765624zm0 0"/><path d="m114.90625 426.933594c31.375 5.152344 57.402344 6.148437 58.496094 6.1875.09375.003906.183594.003906.277344.003906 20.628906 0 44.058593-.8125 61.402343-6.851562 19.558594-6.8125 29.480469-19.597657 29.480469-37.996094 0-22-17.296875-48.230469-99.683594-48.230469-21.484375 0-41.71875 5.992187-56.976562 16.875-14.222656 10.144531-22.996094 23.503906-24.070313 36.660156-1.097656 13.472657 6.488281 29.3125 31.074219 33.351563zm-15.890625-32.113282c1.316406-16.164062 25.53125-39.542968 65.863281-39.542968 73.480469 0 84.453125 20.675781 84.453125 33 0 21.570312-20.46875 29.601562-75.503906 29.617187-2.019531-.082031-27.179687-1.183593-56.457031-5.992187-16.957032-2.785156-18.777344-11.898438-18.355469-17.082032zm0 0"/></svg>