<svg height="511pt" viewBox="-96 1 511 511.99898" width="511pt" xmlns="http://www.w3.org/2000/svg"><path d="m111.339844 51.863281c0 19.453125-12.554688 35.96875-30.003906 41.890625-4.460938 1.515625-9.25 2.339844-14.226563 2.339844-24.433594 0-44.242187-19.800781-44.242187-44.230469 0-24.433593 19.808593-44.242187 44.242187-44.242187 4.976563 0 9.765625.824218 14.226563 2.339844 17.449218 5.925781 30.003906 22.449218 30.003906 41.902343zm0 0" fill="#beccd3"/><path d="m111.339844 51.863281c0 19.453125-12.554688 35.96875-30.003906 41.890625-17.449219-5.921875-30.011719-22.4375-30.011719-41.890625s12.5625-35.976562 30.011719-41.902343c17.449218 5.925781 30.003906 22.449218 30.003906 41.902343zm0 0" fill="#dae6ed"/><path d="m69.605469 248.738281c0 15.304688-11.179688 27.996094-25.820313 30.351563-1.601562.257812-3.246094.394531-4.925781.394531-16.984375 0-30.746094-13.761719-30.746094-30.746094s13.761719-30.746093 30.746094-30.746093c1.679687 0 3.324219.136718 4.925781.394531 14.640625 2.355469 25.820313 15.046875 25.820313 30.351562zm0 0" fill="#f6ba97"/><path d="m49.847656 248.738281c0 6.070313-4.917968 10.988281-10.988281 10.988281s-10.988281-4.917968-10.988281-10.988281c0-6.070312 4.917968-10.988281 10.988281-10.988281s10.988281 4.917969 10.988281 10.988281zm0 0" fill="#eaa27f"/><path d="m250.980469 248.738281c0 15.304688 11.179687 27.996094 25.816406 30.351563 1.601563.257812 3.246094.394531 4.925781.394531 16.984375 0 30.746094-13.761719 30.746094-30.746094s-13.761719-30.746093-30.746094-30.746093c-1.679687 0-3.324218.136718-4.925781.394531-14.636719 2.355469-25.816406 15.046875-25.816406 30.351562zm0 0" fill="#f6ba97"/><path d="m292.710938 248.738281c0 6.070313-4.917969 10.988281-10.988282 10.988281-6.066406 0-10.988281-4.917968-10.988281-10.988281 0-6.070312 4.921875-10.988281 10.988281-10.988281 6.070313 0 10.988282 4.917969 10.988282 10.988281zm0 0" fill="#eaa27f"/><path d="m274.679688 201.25v31.152344c0 57.394531-42.273438 104.914062-97.378907 113.117187-5.550781.832031-11.226562 1.265625-17.003906 1.265625-63.160156 0-114.371094-51.210937-114.371094-114.382812v-31.152344c0-11.171875 1.609375-21.976562 4.597657-32.1875h219.554687c3.003906 10.210938 4.601563 21.015625 4.601563 32.1875zm0 0" fill="#f6ba97"/><path d="m114.730469 172.203125c-6.777344 28.457031-25.410157 87.0625-6.777344 105.695313 18.632813 18.632812-54.878906-10.164063-54.878906-10.164063l11.515625-105.019531" fill="#eaa27f"/><path d="m283.140625 443.578125v28.488281c-14.644531 8.292969-30.207031 15.171875-46.507813 20.394532-1.691406.550781-3.378906 1.070312-5.089843 1.578124-6.339844 1.890626-12.792969 3.539063-19.335938 4.914063-2.871093.609375-5.75 1.171875-8.652343 1.667969-14.054688 2.472656-28.507813 3.757812-43.253907 3.757812-14.746093 0-29.199219-1.285156-43.253906-3.746094-2.898437-.5-5.777344-1.058593-8.648437-1.667968-7.601563-1.609375-15.0625-3.5625-22.390626-5.84375-.40625-.132813-.816406-.253906-1.222656-.386719-.273437-.082031-.539062-.171875-.8125-.265625-16.292968-5.21875-31.867187-12.097656-46.511718-20.402344v-28.488281c0-34.367187 18.707031-64.371094 46.511718-80.359375 7.113282-4.101562 14.816406-7.277344 22.957032-9.363281.492187-.132813.976562-.246094 1.46875-.367188 4.589843-1.109375 9.3125-1.871093 14.144531-2.257812 2.503906-.203125 5.027343-.304688 7.582031-.304688h60.339844c7.136718 0 14.074218.792969 20.742187 2.320313.335938.082031.671875.152344.996094.234375.488281.109375.976563.230469 1.457031.367187 8.140625 2.09375 15.855469 5.269532 22.96875 9.371094 27.796875 16 46.511719 46 46.511719 80.359375zm0 0" fill="#dc4250"/><path d="m283.140625 443.578125v28.488281c-31.527344 17.890625-67.351563 29.105469-105.539063 31.710938-4.496093.316406-9.027343.507812-13.574218.570312-1.242188.019532-2.484375.03125-3.726563.03125-1.261719 0-2.523437-.011718-3.773437-.03125-4.734375-.070312-9.425782-.273437-14.085938-.601562-19.957031-1.414063-39.265625-5.179688-57.65625-11.011719v-49.15625c0-25.890625 10.613282-49.296875 27.742188-66.101563 16.722656-16.425781 39.652344-26.550781 64.933594-26.550781h13.003906c.886718 0 1.773437.007813 2.648437.039063h.121094c.78125.019531 1.566406.050781 2.351563.101562.773437.042969 1.535156.09375 2.296874.152344.449219.03125.898438.070312 1.34375.121094.40625.023437.796876.0625 1.191407.113281.449219.050781.898437.101563 1.34375.152344.316406.03125.632812.070312.9375.121093.628906.082032 1.25.164063 1.871093.265626.011719-.011719.023438 0 .023438 0 .761719.121093 1.523438.242187 2.277344.378906.765625.140625 1.515625.28125 2.28125.4375.753906.152344 1.496094.3125 2.25.488281.75.171875 1.503906.355469 2.257812.558594 39.964844 10.289062 69.480469 46.5625 69.480469 89.722656zm0 0" fill="#ef5361"/><path d="m290.574219 352.429688c-15.722657 18.78125-55.410157-5.589844-56.222657-6.089844.449219 1.039062 25.796876 59.941406-14.917968 73.847656-36.871094 12.582031-59.128906-23.722656-59.128906-23.722656s-22.257813 36.304687-59.128907 23.722656c-40.703125-13.90625-15.359375-72.808594-14.910156-73.847656-.46875.285156-13.488281 8.285156-27.542969 11.679687-10.660156 2.578125-21.902344 2.507813-28.691406-5.589843-15.882812-18.976563 15.898438-66.398438 15.898438-120.027344v-39.496094l34.714843-16.902344v12.429688c0 31.191406-20.792969 80.929687 18.496094 74.558594 7.105469-1.160157 12.949219-2.417969 17.890625-3.710938 22.378906-5.832031 26.066406-12.316406 43.261719-12.316406 21.007812 0 21.863281 9.65625 61.152343 16.027344 39.292969 6.371093 18.507813-43.367188 18.507813-74.558594v-12.582032l34.726563 17.066407v39.484375h.011718c0 53.628906 31.769532 101.050781 15.882813 120.027344zm0 0" fill="#dae6ed"/><path d="m272.503906 119.367188v.007812l-222.359375-.609375c10.429688-51.832031 56.214844-90.859375 111.113281-90.859375 9.097657 0 17.941407 1.070312 26.414063 3.101562 42.839844 10.222657 76.246094 44.757813 84.804687 88.226563.007813.039063.019532.089844.027344.132813zm0 0" fill="#dc4250"/><path d="m117.03125 259.292969c-16.527344 27.410156-77.953125 66.539062-58.308594 98.726562-10.660156 2.578125-21.902344 2.507813-28.691406-5.589843-15.882812-18.976563 15.898438-66.398438 15.898438-120.027344v-39.496094l34.714843-16.902344v12.429688c0 31.191406-20.792969 80.929687 18.496094 74.558594 7.105469-1.160157 12.949219-2.417969 17.890625-3.710938zm0 0" fill="#beccd3"/><path d="m272.476562 119.234375-169.484374-.46875c8.703124-43.242187 42.007812-77.5625 84.679687-87.757813 42.839844 10.222657 76.246094 44.757813 84.804687 88.226563zm0 0" fill="#ef5361"/><path d="m287.199219 136.808594v39.332031c0 12.027344-12.804688 20.761719-25.597657 17.371094-47.5-12.585938-97.175781-16.136719-145.898437-10.636719-.03125 0-.0625.011719-.09375.011719-4.660156.527343-9.296875 1.128906-13.933594 1.824219-14.339843 2.140624-28.554687 5.066406-42.589843 8.78125-12.824219 3.402343-25.660157-5.292969-25.660157-17.339844v-39.34375c0-7.757813 5.46875-14.679688 13.632813-17.128906 17.90625-5.363282 36.167968-9.421876 54.617187-12.179688 5.289063-.789062 10.59375-1.476562 15.914063-2.046875h.019531c52.210937-5.632813 105.476563-.902344 155.921875 14.214844 8.179688 2.449219 13.667969 9.378906 13.667969 17.140625zm0 0" fill="#dae6ed"/><path d="m115.609375 182.886719c-4.660156.527343-9.296875 1.128906-13.933594 1.824219-14.339843 2.136718-28.554687 5.0625-42.589843 8.777343-12.824219 3.402344-25.660157-5.289062-25.660157-17.335937v-39.34375c0-7.761719 5.46875-14.683594 13.632813-17.128906 17.90625-5.367188 36.167968-9.421876 54.617187-12.183594 5.289063-.785156 10.59375-1.472656 15.914063-2.042969-31.902344 4.792969-39.292969 23.5-36.179688 43.558594 3.113282 20.054687 13.40625 35.679687 34.199219 33.875zm0 0" fill="#beccd3"/><path d="m124.9375 387.167969c-1.140625-.125-2.285156-.25-3.425781-.394531.15625.019531.300781.039062.457031.050781 1.046875.09375 2.035156.207031 2.96875.34375zm0 0" fill="#dc4250"/><path d="m210.601562 461.175781c0 7.667969-6.21875 13.886719-13.890624 13.886719-7.667969 0-13.886719-6.21875-13.886719-13.886719 0-7.671875 6.21875-13.890625 13.886719-13.890625 7.671874 0 13.890624 6.21875 13.890624 13.890625zm0 0" fill="#dae6ed"/><path d="m160.289062 294.125c11.339844 0 22.679688-2.585938 33.242188-7.761719 3.78125-1.851562 5.34375-6.417969 3.492188-10.199219-1.851563-3.777343-6.417969-5.34375-10.199219-3.492187-16.859375 8.261719-36.207031 8.261719-53.070313 0-3.785156-1.851563-8.347656-.285156-10.199218 3.492187-1.851563 3.78125-.289063 8.347657 3.492187 10.199219 10.5625 5.175781 21.902344 7.761719 33.242187 7.761719zm0 0"/><path d="m193.878906 232.199219c4.210938 0 7.621094-3.410157 7.621094-7.621094v-19.335937c0-4.210938-3.410156-7.621094-7.621094-7.621094-4.210937 0-7.625 3.410156-7.625 7.621094v19.335937c0 4.210937 3.414063 7.621094 7.625 7.621094zm0 0"/><path d="m126.707031 197.621094c-4.210937 0-7.621093 3.410156-7.621093 7.621094v19.335937c0 4.210937 3.410156 7.621094 7.621093 7.621094 4.210938 0 7.625-3.410157 7.625-7.621094v-19.335937c0-4.210938-3.414062-7.621094-7.625-7.621094zm0 0"/><path d="m320.089844 248.734375c0-20.960937-16.898438-38.039063-37.785156-38.351563v-12.738281c.855468-.519531 1.695312-1.070312 2.496093-1.6875 6.363281-4.898437 10.015625-12.121093 10.015625-19.8125v-39.335937c0-10.066406-6.210937-19.003906-15.757812-23.195313-12.699219-54.335937-61.546875-93.328125-117.800782-93.328125-16.601562 0-32.574218 3.417969-47.164062 9.625-8.398438-17.96875-26.636719-29.910156-46.984375-29.910156-28.597656 0-51.863281 23.265625-51.863281 51.863281 0 21.210938 13.15625 40.183594 32.308594 48.03125-1.523438 4.183594-2.820313 8.488281-3.882813 12.890625-10.734375 3.730469-17.867187 13.226563-17.867187 24.019532v39.34375c0 7.683593 3.644531 14.894531 10 19.785156.800781.617187 1.640624 1.183594 2.5 1.707031v12.742187c-20.894532.292969-37.804688 17.378907-37.804688 38.351563 0 17.96875 12.417969 33.089844 29.125 37.234375-1.140625 4.152344-2.308594 8.214844-3.441406 12.164062-3.234375 11.234376-6.285156 21.847657-7.5625 30.996094-.578125 4.167969 2.328125 8.019532 6.496094 8.601563.359374.050781.714843.074219 1.066406.074219 3.742187 0 7.003906-2.757813 7.539062-6.570313 1.125-8.082031 3.898438-17.722656 7.109375-28.886719 5.667969-19.707031 12.71875-44.230468 12.71875-69.945312v-30.566406c2.503907-.007813 5.019531-.320313 7.484375-.972657 3.78125-1.003906 7.59375-1.941406 11.425782-2.832031-.519532 5.125-1.328126 10.566406-2.125 15.902344-3.082032 20.636718-5.992188 40.132812 4.820312 50.8125 4.320312 4.269531 10.257812 6.414062 17.699219 6.414062 2.351562 0 4.859375-.214844 7.507812-.644531 21.175781-3.433594 31.996094-7.921875 39.898438-11.199219 7.109375-2.949218 11.398437-4.730468 20.035156-4.730468 8.644531 0 12.9375 1.78125 20.050781 4.730468 7.898438 3.28125 18.71875 7.765625 39.878906 11.199219 11.042969 1.792969 19.523438-.152344 25.210938-5.769531 10.820312-10.683594 7.90625-30.183594 4.824219-50.828125-.792969-5.332031-1.601563-10.765625-2.121094-15.886719 3.855469.890625 7.691406 1.835938 11.507813 2.847656 2.441406.648438 4.933593.964844 7.414062.976563v30.546875c0 .132812.003906.269531.007812.402344.074219 25.566406 7.078126 49.9375 12.714844 69.535156 5.867188 20.414062 10.9375 38.042968 4.949219 45.195312-5.414063 6.464844-16.84375 4.570313-25.476563 1.835938-10.265624-3.25-19.300781-8.554688-20.734374-9.421875-3.019532-1.976563-7.105469-1.582031-9.683594 1.121093-1.410156 1.476563-2.105469 3.371094-2.105469 5.261719 0 1.078125.226563 2.15625.679687 3.152344.921876 2.210937 12.902344 31.691406 4.65625 50.289063-2.832031 6.378906-7.769531 10.695312-15.09375 13.199218-12.644531 4.3125-24.769531 2.363282-36.035156-5.792968-8.980468-6.5-14.097656-14.636719-14.136718-14.699219-1.382813-2.261719-3.84375-3.640625-6.496094-3.640625s-5.113282 1.378906-6.5 3.640625c-.046875.078125-5.03125 7.988281-13.761719 14.429687-11.371094 8.382813-23.621094 10.421875-36.40625 6.0625-7.324219-2.503906-12.261719-6.824218-15.089844-13.207031-8.152343-18.394531 3.445313-47.335937 4.621094-50.179687.484375-1.027344.726563-2.136719.726563-3.246094 0-2.015625-.792969-4.023438-2.367188-5.523438-2.597656-2.472656-6.480469-2.753906-9.371094-.898437-1.476562.894531-10.398437 6.167969-20.820312 9.460937-8.621094 2.726563-20.042969 4.621094-25.460938-1.84375-2.703125-3.226562-7.511718-3.652344-10.738281-.949218-3.226563 2.703124-3.648437 7.507812-.945313 10.734374 5.976563 7.136719 18.070313 14.078126 41.738282 6.59375 2.21875-.699218 4.355468-1.484374 6.414062-2.292968-26.695312 18.804687-42.503906 49.101562-42.503906 81.960937v28.488281c0 2.742188 1.476562 5.273438 3.863281 6.628907 15.269531 8.660156 31.402344 15.734375 47.851563 20.996093l.144531.046876c.269531.09375.539063.179687.8125.265624.246094.078126.492187.152344.738281.230469l.492188.15625c7.558594 2.355469 15.328125 4.382813 23.074218 6.019531 3.097657.660157 6.023438 1.222657 8.914063 1.71875 14.597656 2.566407 29.59375 3.867188 44.574219 3.867188 15 0 30-1.304688 44.542968-3.871094 2.890626-.496094 5.8125-1.058594 8.925782-1.71875 6.640625-1.394531 13.351562-3.097656 19.925781-5.0625 1.679687-.496094 3.40625-1.035156 5.25-1.632812 16.515625-5.28125 32.644531-12.351563 47.941406-21.015625 2.390625-1.351563 3.867188-3.886719 3.867188-6.632813v-28.484375c0-32.863281-15.828125-63.179687-42.550781-81.988281 2.066406.816406 4.214843 1.605469 6.445312 2.3125 23.691406 7.496094 35.789062.554688 41.769531-6.585938 11.183594-13.363281 5.371094-33.585937-1.988281-59.191406-1.136719-3.953125-2.304688-8.015625-3.441406-12.171875 16.6875-4.152343 29.09375-19.261719 29.09375-37.222656zm-210.113282 242.769531c-7.289062-1.542968-14.589843-3.445312-21.664062-5.652344l-1.179688-.371093c-.058593-.019531-.121093-.039063-.179687-.058594-.136719-.039063-.265625-.082031-.398437-.128906l-.261719-.085938c-14.160157-4.53125-28-10.453125-41.207031-17.625v-24c0-23.140625 9.246093-44.78125 25.347656-60.589843-.105469 7.777343.984375 15.746093 4.175781 22.949218 4.582031 10.339844 12.691406 17.558594 24.105469 21.457032 6.167968 2.105468 12.0625 3.019531 17.632812 3.019531 14.707032 0 27.140625-6.375 36.335938-14.003907v80.191407c-11.550782-.355469-23.066406-1.511719-34.34375-3.492188-2.722656-.464843-5.453125-.992187-8.363282-1.609375zm165.539063-47.921875v23.996094c-13.230469 7.179687-27.074219 13.097656-41.242187 17.628906-1.75.570313-3.351563 1.066407-4.914063 1.53125-6.191406 1.847657-12.484375 3.445313-18.730469 4.753907-2.933594.621093-5.667968 1.148437-8.394531 1.617187-11.242187 1.984375-22.746094 3.140625-34.308594 3.5v-80.195313c12.679688 10.523438 31.511719 18.648438 53.972657 10.984376 11.410156-3.894532 19.519531-11.109376 24.101562-21.445313 3.191406-7.195313 4.28125-15.160156 4.175781-22.941406 16.09375 15.8125 25.339844 37.449219 25.339844 60.570312zm-245.027344-391.71875c0-20.191406 16.429688-36.617187 36.621094-36.617187 14.515625 0 27.507813 8.605468 33.351563 21.507812-19.78125 11.535156-36.140626 28.550782-46.785157 49.167969-13.722656-5.441406-23.1875-18.945313-23.1875-34.058594zm-14.746093 196.871094c0-12.566406 10.074218-22.8125 22.5625-23.109375v6.777344c0 13.398437-2.082032 26.417968-4.925782 38.792968-10.109375-2.46875-17.636718-11.597656-17.636718-22.460937zm219.441406-32.566406c2.160156 14.476562 4.847656 32.488281-.460938 37.730469-2.535156 2.503906-7.953125 2.238281-12.054687 1.570312-19.410157-3.148438-28.875-7.074219-36.484375-10.230469-7.625-3.164062-14.210938-5.894531-25.890625-5.894531-11.671875 0-18.253907 2.730469-25.875 5.890625-7.609375 3.15625-17.078125 7.085937-36.496094 10.234375-4.101563.664062-9.523437.933594-12.054687-1.570312-5.304688-5.238282-2.613282-23.242188-.453126-37.710938 1.070313-7.167969 2.164063-14.515625 2.625-21.433594 4.90625-.925781 9.832032-1.765625 14.761719-2.5 42.84375-6.394531 87.1875-5.492187 129.761719 2.511719.460938 6.90625 1.550781 14.246094 2.621094 21.402344zm28.367187-30.023438c-52.578125-13.9375-108.941406-17.039062-163.003906-8.972656-14.617187 2.183594-29.226563 5.195313-43.417969 8.953125-4.230468 1.121094-8.726562.269531-12.03125-2.269531-1.511718-1.167969-4.050781-3.714844-4.050781-7.707031v-39.34375c0-4.40625 3.296875-8.355469 8.199219-9.824219 17.394531-5.214844 35.414062-9.230469 53.550781-11.9375 34.011719-5.078125 68.589844-5.628907 102.789063-1.632813 4.160156.492188 7.964843-2.503906 8.453124-6.683594.488282-4.183593-2.503906-7.96875-6.683593-8.457031-35.53125-4.152343-71.464844-3.582031-106.808594 1.691407-13.339844 1.992187-26.609375 4.679687-39.644531 7.992187 14.136718-42.628906 54.484375-72.421875 100.355468-72.421875 46.140626 0 86.570313 30.015625 100.542969 72.953125-9.628906-2.503906-19.386719-4.667969-29.160156-6.445313-4.144531-.753906-8.109375 1.996094-8.863281 6.136719s1.992187 8.109375 6.136718 8.863281c13.96875 2.539063 27.90625 5.878907 41.433594 9.929688 4.917969 1.476562 8.222656 5.429688 8.222656 9.839844v39.335937c0 4-2.550781 6.5625-4.070312 7.730469-3.289062 2.535156-7.757812 3.378906-11.949219 2.269531zm23.683594 85.035157c-2.839844-12.367188-4.921875-25.382813-4.921875-38.777344 0-.132813 0-.261719-.007812-.390625v-6.382813c12.480468.308594 22.539062 10.550782 22.539062 23.105469 0 10.839844-7.5 19.960937-17.609375 22.445313zm0 0"/><path d="m196.710938 439.660156c-11.859376 0-21.511719 9.652344-21.511719 21.515625 0 11.859375 9.652343 21.511719 21.511719 21.511719 11.863281 0 21.515624-9.652344 21.515624-21.511719 0-11.863281-9.652343-21.515625-21.515624-21.515625zm0 27.78125c-3.453126 0-6.265626-2.8125-6.265626-6.265625 0-3.457031 2.8125-6.269531 6.265626-6.269531 3.457031 0 6.269531 2.8125 6.269531 6.269531 0 3.453125-2.8125 6.265625-6.269531 6.265625zm0 0"/></svg>