<svg height="512pt" viewBox="-63 0 512 512" width="512pt" xmlns="http://www.w3.org/2000/svg"><path d="m343.933594 442.460938c-4 .660156-8.011719 1.300781-12.035156 1.898437l-38.617188-49.96875v54.996094c-60.507812 6.570312-121.832031 7.160156-182.496094 1.769531-22.957031-2.042969-45.824218-4.9375-68.519531-8.695312-30.199219-5.003907-44.40625-31.976563-27.265625-51.898438 14.136719-16.429688 28.339844-33.195312 42.609375-50.292969 8.722656-10.441406 17.453125-21 26.207031-31.695312l1.027344-1.613281 60.703125-95.339844 156.835937 96.964844c8.324219 10.164062 16.632813 20.21875 24.917969 30.148437 14.714844 17.640625 29.34375 34.910156 43.898438 51.828125 17.140625 19.921875 2.941406 46.894531-27.265625 51.898438zm0 0" fill="#4dc168"/><path d="m327.300781 338.734375c-2.84375 1.128906-5.941406 1.992187-9.273437 2.539063-84.3125 13.953124-171.488282 13.953124-255.800782 0-1.59375-.265626-3.136718-.597657-4.617187-1.003907 8.722656-10.441406 17.453125-21 26.207031-31.695312l61.730469-96.953125 156.835937 96.964844c8.324219 10.164062 16.632813 20.21875 24.917969 30.148437zm0 0" fill="#3dad52"/><path d="m321.003906 305.734375c-55.363281 9.15625-111.953125 12.304687-168.15625 9.441406l-14.917968-59.394531-19.203126 56.898438c-17.929687-1.695313-35.792968-4.011719-53.523437-6.945313-25.609375-4.234375-37.652344-27.105469-23.121094-44 17.636719-20.511719 35.429688-41.644531 53.320313-63.382813 4.753906-5.78125 9.515625-11.609374 14.277344-17.476562 3.382812-4.152344 6.761718-8.335938 10.144531-12.542969l62.042969-62.042969 84.515624 62.042969c8.15625 10.136719 16.296876 20.136719 24.410157 30.019531 17.894531 21.738282 35.683593 42.871094 53.324219 63.382813 14.53125 16.894531 2.496093 39.765625-23.113282 44zm0 0" fill="#4dc168"/><path d="m244.125 492.777344c-16.125 7.738281-33.582031 11.605468-51.027344 11.605468-3.664062 0-7.339844-.171874-10.996094-.515624-13.730468-1.28125-27.296874-4.976563-40.027343-11.089844l6.773437-39.035156h88.503906l3.179688 18.320312zm0 0" fill="#7f4a26"/><g fill="#3dad52"><path d="m290.792969 198.351562c-64.40625 10.578126-130.992188 10.570313-195.390625 0 8.125-9.882812 16.269531-19.882812 24.421875-30.019531l62.042969-62.042969 84.515624 62.042969c8.15625 10.136719 16.296876 20.136719 24.410157 30.019531zm0 0"/><path d="m157.730469 196.390625-19.800781 59.390625-19.203126 56.898438c-17.929687-1.695313-35.792968-4.011719-53.523437-6.945313-25.609375-4.234375-37.652344-27.105469-23.121094-44 17.636719-20.511719 35.429688-41.644531 53.320313-63.382813 4.753906-5.78125 9.515625-11.609374 14.277344-17.476562zm0 0"/><path d="m110.757812 451.144531c.007813 0 .019532.011719.027344.011719-22.957031-2.042969-45.824218-4.9375-68.519531-8.695312-30.199219-5.003907-44.40625-31.976563-27.265625-51.898438 14.136719-16.429688 28.339844-33.195312 42.609375-50.292969 8.722656-10.441406 17.453125-21 26.207031-31.695312l1.027344-1.613281 50.039062 28.027343s-95.472656 95.238281-24.125 116.15625zm0 0"/></g><path d="m291.628906 164.707031c-45.765625 7.578125-92.640625 9.820313-139.054687 6.703125-.023438 0-.042969 0-.074219-.011718-1.816406-.109376-3.632812-.230469-5.453125-.382813-.007813 0-.007813 0-.019531 0-.660156-.042969-1.328125-.09375-1.988282-.152344-.011718 0-.019531 0-.03125-.011719-16.90625-1.332031-33.742187-3.382812-50.425781-6.144531-19.730469-3.257812-29.011719-20.875-17.8125-33.894531 30.230469-35.144531 61.027344-72.644531 91.957031-112.519531 5.128907-6.621094 13.660157-10.175781 22.414063-10.632813 10.0625-.519531 20.429687 3.015625 26.339844 10.632813 30.917969 39.875 61.71875 77.375 91.949219 112.519531 11.199218 13.019531 1.917968 30.636719-17.800782 33.894531zm0 0" fill="#4dc168"/><path d="m191.140625 7.660156v.007813s-93.363281 157.285156-46.132813 163.183593c-16.90625-1.332031-33.742187-3.382812-50.425781-6.144531-19.730469-3.257812-29.011719-20.875-17.8125-33.894531 30.230469-35.144531 61.027344-72.644531 91.957031-112.519531 5.128907-6.621094 13.660157-10.175781 22.414063-10.632813zm0 0" fill="#3dad52"/><path d="m244.125 492.777344c-16.125 7.738281-33.582031 11.605468-51.027344 11.605468-3.664062 0-7.339844-.171874-10.996094-.515624v-31.804688h58.429688zm0 0" fill="#935d35"/><path d="m147.046875 171.015625c2.082031.070313 3.902344.203125 5.453125.382813-1.816406-.109376-3.632812-.230469-5.453125-.382813zm0 0" fill="#3dad52"/><path d="m376.972656 385.597656c-20.292968-23.597656-40.496094-47.59375-60.1875-71.476562 1.824219-.289063 3.644532-.574219 5.460938-.875 16.222656-2.683594 29.210937-12.359375 33.890625-25.257813 3.890625-10.703125 1.609375-22.082031-6.246094-31.222656-23.367187-27.164063-46.550781-54.925781-69.058594-82.671875 4.015625-.582031 8.027344-1.207031 12.035157-1.867188 13.121093-2.171874 23.648437-10.0625 27.472656-20.59375 3.214844-8.855468 1.339844-18.253906-5.132813-25.78125-12.125-14.097656-24.261719-28.484374-36.066406-42.757812-2.683594-3.242188-7.480469-3.695312-10.722656-1.015625-3.242188 2.683594-3.695313 7.480469-1.015625 10.722656 11.871094 14.351563 24.066406 28.8125 36.253906 42.980469 2.867188 3.332031 3.683594 7.015625 2.363281 10.652344-1.949219 5.363281-7.941406 9.488281-15.640625 10.761718-64.550781 10.6875-130.011718 10.6875-194.5625 0-7.699218-1.273437-13.691406-5.398437-15.640625-10.761718-1.320312-3.636719-.503906-7.320313 2.363281-10.652344 31.703126-36.859375 62.722657-74.820312 92.203126-112.820312 3.753906-4.839844 10.617187-7.730469 18.359374-7.730469 7.738282 0 14.601563 2.890625 18.355469 7.734375 11.707031 15.089844 23.753907 30.300781 35.804688 45.207031 2.644531 3.269531 7.441406 3.78125 10.710937 1.132813 3.273438-2.644532 3.78125-7.441407 1.132813-10.710938-11.988281-14.828125-23.96875-29.957031-35.609375-44.964844-6.621094-8.535156-17.980469-13.628906-30.394532-13.628906-12.414062 0-23.777343 5.09375-30.394531 13.628906-29.320312 37.796875-60.175781 75.554688-91.714843 112.222656-6.476563 7.527344-8.347657 16.925782-5.132813 25.78125 3.824219 10.53125 14.351563 18.421876 27.472656 20.59375 4.011719.664063 8.023438 1.285157 12.042969 1.871094-22.4375 27.65625-45.625 55.414063-69.066406 82.671875-7.859375 9.136719-10.132813 20.511719-6.25 31.214844 4.6875 12.902344 17.675781 22.582031 33.902344 25.265625 1.808593.296875 3.628906.585938 5.445312.875-19.765625 23.984375-39.96875 47.976562-60.179688 71.472656-8.933593 10.386719-11.53125 23.304688-7.128906 35.445313 5.355469 14.753906 20.265625 25.839843 38.925782 28.933593 7.957031 1.316407 16.0625 2.546876 24.09375 3.65625.351562.050782.703124.074219 1.050781.074219 3.742187 0 7.007812-2.761719 7.535156-6.574219.574219-4.164062-2.335937-8.007812-6.5-8.585937-7.898437-1.09375-15.871094-2.300781-23.691406-3.597656-13.234375-2.191407-23.613281-9.511719-27.09375-19.097657-2.511719-6.921874-.964844-14.140624 4.355469-20.320312 22.28125-25.898438 44.542968-52.402344 66.230468-78.832031 10.308594 1.386719 20.675782 2.585937 31.007813 3.5625 3.511719.332031 6.800781-1.796875 7.933593-5.144531l10.914063-32.335938 8.601563 34.253906c.816406 3.246094 3.65625 5.578125 7 5.75 13.527343.6875 27.058593 1.03125 40.59375 1.03125 35.566406 0 71.078124-2.378906 106.140624-7.113281 21.59375 26.308594 43.855469 52.808594 66.230469 78.828125 5.320313 6.183594 6.867188 13.402344 4.355469 20.324219-3.476562 9.585937-13.859375 16.902343-27.085938 19.09375-2.679687.441406-5.164062.839843-7.511718 1.207031l-35.875-46.421875c-1.992188-2.578125-5.402344-3.601563-8.484375-2.550781-3.082031 1.054687-5.15625 3.949218-5.15625 7.207031v48.136719c-63.515625 6.417968-127.847657 6.203125-191.339844-.644532-4.183594-.453124-7.9375 2.574219-8.386719 6.753907-.453125 4.183593 2.570313 7.9375 6.753906 8.390625 15.683594 1.691406 31.421876 2.96875 47.179688 3.863281l-5.304688 30.585937c-.582031 3.355469 1.132813 6.691407 4.207032 8.167969 16.847656 8.082031 35.628906 12.355469 54.320312 12.355469s37.476563-4.273438 54.324219-12.355469c3.070313-1.476562 4.789063-4.8125 4.207031-8.167969l-5.304687-30.582031c15.964843-.910156 31.898437-2.210937 47.78125-3.933593 3.867187-.421876 6.792969-3.683594 6.792969-7.570313v-32.6875l24.976562 32.316406c1.683594 2.183594 4.421875 3.28125 7.148438 2.875 3.679687-.546875 7.652343-1.175781 12.15625-1.917969 18.652343-3.089843 33.566406-14.175781 38.917968-28.929687 4.40625-12.140625 1.808594-25.0625-7.125-35.449219zm-218.117187-77.761718-13.539063-53.90625c-.824218-3.28125-3.707031-5.621094-7.082031-5.757813-3.386719-.132813-6.441406 1.972656-7.519531 5.175781l-17.265625 51.160156c-15.738281-1.613281-31.523438-3.726562-47.003907-6.289062-10.804687-1.785156-19.257812-7.699219-22.066406-15.433594-2.011718-5.539062-.808594-11.101562 3.476563-16.085937 25.597656-29.757813 50.890625-60.121094 75.238281-90.296875 23.285156 2.691406 46.644531 4.042968 70.007812 4.042968 23.363282 0 46.726563-1.351562 70.011719-4.042968 24.433594 30.28125 49.722657 60.640625 75.230469 90.296875 4.289062 4.988281 5.492188 10.550781 3.480469 16.089843-2.808594 7.734376-11.261719 13.644532-22.0625 15.429688-52.855469 8.746094-106.960938 11.976562-160.90625 9.617188zm76.753906 180.414062c-13.410156 5.585938-27.992187 8.519531-42.507813 8.519531-14.519531 0-29.101562-2.933593-42.511718-8.519531l4.613281-26.601562c12.625.511718 25.261719.765624 37.898437.765624 12.636719 0 25.269532-.253906 37.894532-.765624zm0 0"/></svg>