<svg height="512pt" viewBox="-44 0 512 512" width="512pt" xmlns="http://www.w3.org/2000/svg"><path d="m385.332031 286.6875v187.707031c0 16.566407-13.425781 30-29.992187 30h-285.867188c-16.566406 0-30-13.433593-30-30v-187.707031zm0 0" fill="#6b9dc6"/><path d="m39.472656 268.4375h345.859375v43.597656h-345.859375zm0 0" fill="#4588b5"/><path d="m385.90625 286.6875h-347.003906c-17.285156 0-31.296875-14.011719-31.296875-31.296875v-75.289063c0-17.285156 14.011719-31.296874 31.296875-31.296874h347.003906c17.285156 0 31.296875 14.011718 31.296875 31.296874v75.289063c0 17.285156-14.011719 31.296875-31.296875 31.296875zm0 0" fill="#6b9dc6"/><path d="m283.003906 7.605469c-38.992187 0-70.601562 31.605469-70.601562 70.597656v70.601563h70.601562c38.992188 0 70.597656-31.609376 70.597656-70.601563s-31.605468-70.597656-70.597656-70.597656zm0 0" fill="#ef5361"/><path d="m141.804688 7.605469c38.988281 0 70.597656 31.605469 70.597656 70.597656v70.601563h-70.597656c-38.992188 0-70.601563-31.609376-70.601563-70.601563s31.609375-70.597656 70.601563-70.597656zm0 0" fill="#ef5361"/><path d="m253.570312 66.464844c-22.734374 0-41.167968 18.433594-41.167968 41.171875v41.167969h41.167968c22.738282 0 41.171876-18.433594 41.171876-41.167969 0-22.738281-18.433594-41.171875-41.171876-41.171875zm0 0" fill="#dc4250"/><path d="m171.234375 66.464844c22.738281 0 41.167969 18.433594 41.167969 41.171875v41.167969h-41.167969c-22.734375 0-41.167969-18.433594-41.167969-41.167969 0-22.738281 18.433594-41.171875 41.167969-41.171875zm0 0" fill="#dc4250"/><path d="m385.90625 141.199219h-56.632812c19.351562-14.25 31.933593-37.175781 31.933593-62.996094 0-43.121094-35.082031-78.203125-78.203125-78.203125-31.097656 0-58.007812 18.246094-70.601562 44.59375-12.589844-26.347656-39.5-44.59375-70.597656-44.59375-43.121094 0-78.207032 35.082031-78.207032 78.203125 0 25.820313 12.585938 48.746094 31.933594 62.996094h-56.628906c-21.449219 0-38.902344 17.453125-38.902344 38.902343v75.289063c0 19.046875 13.765625 34.933594 31.871094 38.253906v180.753907c0 20.734374 16.867187 37.601562 37.601562 37.601562h285.863282c20.734374 0 37.601562-16.867188 37.601562-37.601562v-180.753907c18.101562-3.320312 31.871094-19.207031 31.871094-38.253906v-75.289063c0-21.449218-17.453125-38.902343-38.902344-38.902343zm-214.671875 0c-18.507813 0-33.5625-15.054688-33.5625-33.566407 0-18.507812 15.054687-33.5625 33.5625-33.5625s33.566406 15.054688 33.566406 33.5625v33.566407zm48.773437-33.566407c0-18.507812 15.058594-33.5625 33.5625-33.5625 18.507813 0 33.566407 15.054688 33.566407 33.5625 0 18.511719-15.058594 33.566407-33.566407 33.566407h-33.5625zm62.996094-92.425781c34.734375 0 62.996094 28.261719 62.996094 62.996094 0 32.644531-24.960938 59.5625-56.796875 62.6875 8.144531-8.71875 13.140625-20.410156 13.140625-33.253906 0-26.894531-21.878906-48.773438-48.773438-48.773438-12.84375 0-24.535156 5-33.253906 13.140625 3.125-31.835937 30.042969-56.796875 62.6875-56.796875zm-204.195312 62.996094c0-34.734375 28.257812-62.996094 62.996094-62.996094 32.644531 0 59.5625 24.960938 62.6875 56.796875-8.71875-8.144531-20.414063-13.140625-33.257813-13.140625-26.890625 0-48.769531 21.878907-48.769531 48.773438 0 12.84375 4.996094 24.535156 13.140625 33.253906-31.835938-3.125-56.796875-30.042969-56.796875-62.6875zm276.527344 418.589844h-285.863282c-12.347656 0-22.394531-10.046875-22.394531-22.394531v-180.105469h330.648437v180.105469c0 12.347656-10.042968 22.394531-22.390624 22.394531zm54.265624-241.402344c0 13.066406-10.632812 23.695313-23.695312 23.695313h-347.003906c-13.066406 0-23.695313-10.628907-23.695313-23.695313v-75.289063c0-13.066406 10.628907-23.695312 23.695313-23.695312h347.003906c13.0625 0 23.695312 10.628906 23.695312 23.695312zm0 0"/><path d="m149.832031 370.332031h-16.730469v-16.730469c0-4.199218-3.40625-7.601562-7.605468-7.601562-4.199219 0-7.601563 3.402344-7.601563 7.601562v16.730469h-16.730469c-4.199218 0-7.601562 3.40625-7.601562 7.605469s3.402344 7.601562 7.601562 7.601562h16.730469v16.730469c0 4.199219 3.402344 7.601563 7.601563 7.601563 4.199218 0 7.605468-3.402344 7.605468-7.601563v-16.730469h16.730469c4.199219 0 7.601563-3.402343 7.601563-7.601562s-3.402344-7.605469-7.601563-7.605469zm0 0"/><path d="m326.242188 221.992188h-16.730469v-16.726563c0-4.199219-3.402344-7.605469-7.601563-7.605469-4.199218 0-7.605468 3.40625-7.605468 7.605469v16.726563h-16.726563c-4.199219 0-7.605469 3.40625-7.605469 7.605468 0 4.199219 3.40625 7.601563 7.605469 7.601563h16.726563v16.730469c0 4.199218 3.40625 7.605468 7.605468 7.605468 4.199219 0 7.601563-3.40625 7.601563-7.605468v-16.730469h16.730469c4.199218 0 7.605468-3.402344 7.605468-7.601563 0-4.199218-3.40625-7.605468-7.605468-7.605468zm0 0"/><path d="m312.046875 423.054688h-16.726563v-16.730469c0-4.199219-3.40625-7.605469-7.605468-7.605469-4.199219 0-7.601563 3.40625-7.601563 7.605469v16.730469h-16.730469c-4.199218 0-7.605468 3.402343-7.605468 7.601562s3.40625 7.605469 7.605468 7.605469h16.730469v16.726562c0 4.199219 3.402344 7.605469 7.601563 7.605469 4.199218 0 7.605468-3.40625 7.605468-7.605469v-16.726562h16.726563c4.199219 0 7.605469-3.40625 7.605469-7.605469s-3.40625-7.601562-7.605469-7.601562zm0 0"/><path d="m239.050781 335.238281h-16.730469v-16.730469c0-4.199218-3.402343-7.601562-7.601562-7.601562s-7.605469 3.402344-7.605469 7.601562v16.730469h-16.726562c-4.203125 0-7.605469 3.402344-7.605469 7.601563 0 4.199218 3.402344 7.605468 7.605469 7.605468h16.726562v16.730469c0 4.199219 3.40625 7.601563 7.605469 7.601563s7.601562-3.402344 7.601562-7.601563v-16.730469h16.730469c4.199219 0 7.601563-3.40625 7.601563-7.605468 0-4.199219-3.402344-7.601563-7.601563-7.601563zm0 0"/><path d="m121.441406 193.921875h-16.726562v-16.730469c0-4.199218-3.40625-7.605468-7.605469-7.605468s-7.605469 3.40625-7.605469 7.605468v16.730469h-16.726562c-4.199219 0-7.605469 3.402344-7.605469 7.601563 0 4.199218 3.40625 7.605468 7.605469 7.605468h16.726562v16.726563c0 4.199219 3.40625 7.605469 7.605469 7.605469s7.605469-3.40625 7.605469-7.605469v-16.726563h16.726562c4.199219 0 7.605469-3.40625 7.605469-7.605468 0-4.199219-3.40625-7.601563-7.605469-7.601563zm0 0"/></svg>