<?xml version="1.0" encoding="utf-8"?>
<!-- Generator: Adobe Illustrator 23.0.1, SVG Export Plug-In . SVG Version: 6.00 Build 0)  -->
<svg version="1.1" id="Layer_1" xmlns="http://www.w3.org/2000/svg" xmlns:xlink="http://www.w3.org/1999/xlink" x="0px" y="0px"
	 viewBox="0 0 280.874 742.857" enable-background="new 0 0 280.874 742.857" xml:space="preserve">
<g>
	<g>
		<path fill="#3C2415" d="M168.404,191.918c18.678-13.932,41.888-53.138,52.459-71.231c5.354-9.163,14.448-20.449,16.634-30.852
			c2.591-12.327-2.23-15.894,7.049-26.058c6.758-7.403,40.769-14.594,35.842-23.8c-8.743-16.338-47.327,15.259-51.962,9.36
			c-3.003-3.822,10.894-29.36,6.672-38.992C227.281-7.491,219.125,0.3,213.88,14.414c-11.285,30.369,10.683,69.618-9.828,97.882
			c-9.107,12.549-8.43,4.824-10.928-9.486c-1.775-10.168,0.839-31.078-16.438-31.239c-23.331-0.217,4.28,26.436,6.78,32.159
			c7.595,17.383-17.24,68.908-25.133,84.841"/>
	</g>
	<g>
		<path fill="#3C2415" d="M121.625,193.618c-18.663-13.942-41.874-53.151-52.456-71.233c-5.345-9.173-12.327-21.065-16.638-30.868
			c-4.31-9.822,1.185-12.095-8.103-22.263c-6.746-7.407-24.59-24.252-19.655-33.445c8.75-16.357,32.198,21.126,36.831,15.221
			c3.017-3.815-5.129-28.676-6.659-38.985C52.79-2.282,70.915,2,76.152,16.104c11.293,30.36-3.427,81.542,9.827,97.879
			c9.806,12.075,8.427,4.83,10.926-9.477c1.789-10.167-0.56-34.074,16.444-31.253c6.508,1.096-4.289,26.443-6.789,32.166
			c-7.586,17.392,17.219,68.879,25.15,84.83"/>
	</g>
	<linearGradient id="SVGID_1_" gradientUnits="userSpaceOnUse" x1="199.2475" y1="331.3294" x2="75.6784" y2="545.3575">
		<stop  offset="0" style="stop-color:#754C29"/>
		<stop  offset="0.1511" style="stop-color:#995127"/>
		<stop  offset="0.9901" style="stop-color:#CB8621"/>
	</linearGradient>
	<path fill="url(#SVGID_1_)" d="M274.913,438.332c0,46.263-30.645,86.308-75.501,105.85c-5.996,2.591-12.14,4.812-18.579,6.662
		c-0.296,0.074-0.592,0.148-0.888,0.222c-6.07,1.777-12.287,3.109-18.727,3.997c-0.148,0.074-0.37,0.074-0.592,0.074
		c-2.221,0.37-4.515,0.666-6.884,0.888c-3.849,0.444-7.772,0.666-11.77,0.814c-1.48,0-3.035,0.074-4.515,0.074
		c-0.888,0-1.776,0-2.665-0.074c-7.18-0.074-14.212-0.666-21.022-1.776c-5.107-0.74-10.067-1.702-14.952-2.961
		c-0.962-0.222-1.925-0.444-2.813-0.74c-1.185-0.296-2.369-0.666-3.479-0.962c-4.071-1.185-7.994-2.591-11.843-4.071
		c-1.925-0.74-3.849-1.555-5.774-2.369c-0.148-0.074-0.296-0.148-0.444-0.222c-0.74-0.37-1.48-0.666-2.221-1.036
		c-1.184-0.518-2.369-1.11-3.553-1.703c-4.442-2.221-8.734-4.589-12.806-7.254l-2.442-1.555c-1.259-0.814-2.517-1.702-3.701-2.591
		C19.319,507.837,0,475.046,0,438.332c0-52.555,39.675-97.115,94.525-112.659c11.769,20.059,29.756,32.865,49.816,32.865
		c18.875,0,35.752-11.251,47.522-29.09C240.716,347.582,274.913,389.478,274.913,438.332z"/>
	<linearGradient id="SVGID_2_" gradientUnits="userSpaceOnUse" x1="128.634" y1="223.7105" x2="110.5871" y2="254.9685">
		<stop  offset="0" style="stop-color:#754C29"/>
		<stop  offset="0.1511" style="stop-color:#995127"/>
		<stop  offset="0.9901" style="stop-color:#CB8621"/>
	</linearGradient>
	<path fill="url(#SVGID_2_)" d="M133.778,241.341c-1.439,10.148-8.928,17.491-16.759,16.393
		c-7.831-1.098-13.002-10.221-11.563-20.393c1.415-10.148,8.928-17.515,16.759-16.393
		C130.021,222.045,135.217,231.168,133.778,241.341z"/>
	<linearGradient id="SVGID_3_" gradientUnits="userSpaceOnUse" x1="178.4307" y1="225.09" x2="161.2175" y2="254.9042">
		<stop  offset="0" style="stop-color:#754C29"/>
		<stop  offset="0.1511" style="stop-color:#995127"/>
		<stop  offset="0.9901" style="stop-color:#CB8621"/>
	</linearGradient>
	<path fill="url(#SVGID_3_)" d="M171.832,258.465c-7.855,0.854-15.124-6.708-16.222-16.93c-1.122-10.197,4.342-19.149,12.221-20.003
		c7.855-0.854,15.124,6.733,16.222,16.929C185.152,248.659,179.687,257.612,171.832,258.465z"/>
	<linearGradient id="SVGID_4_" gradientUnits="userSpaceOnUse" x1="199.4612" y1="222.7528" x2="198.6025" y2="224.2401">
		<stop  offset="0" style="stop-color:#754C29"/>
		<stop  offset="0.1511" style="stop-color:#995127"/>
		<stop  offset="0.9901" style="stop-color:#CB8621"/>
	</linearGradient>
	<path fill="url(#SVGID_4_)" d="M199.617,224.826c-0.561-0.732-0.951-1.512-1.122-2.293c-0.024-0.122-0.049-0.244-0.049-0.366
		C198.861,223.045,199.251,223.923,199.617,224.826z"/>
	<linearGradient id="SVGID_5_" gradientUnits="userSpaceOnUse" x1="177.2091" y1="133.6911" x2="68.426" y2="322.1089">
		<stop  offset="0" style="stop-color:#754C29"/>
		<stop  offset="0.1511" style="stop-color:#995127"/>
		<stop  offset="0.9901" style="stop-color:#CB8621"/>
	</linearGradient>
	<path fill="url(#SVGID_5_)" d="M266.189,185.064c-9.977,13.563-70.694,4.903-78.354,19.588
		c-7.611-9.709-16.93-16.881-27.248-20.613c-5.172-1.854-10.611-2.854-16.222-2.854c-5.83,0-11.49,1.073-16.881,3.098v0.024
		c-11.66,4.367-22.004,13.197-30.005,25.053c0.049-0.464,0.049-0.903,0.049-1.366c0-19.32-60.668-13.026-79.135-22.93
		c0,0-4.464,11.612,4.098,28.98c8.172,16.612,16.93,25.394,37.811,25.394c10.416,0,19.71-3,26.394-8.416
		c-4.147,11.709-6.465,24.882-6.465,38.811c0,21.174,5.367,40.616,14.319,55.838c11.758,20.052,29.712,32.835,49.813,32.835
		c18.832,0,35.762-11.221,47.495-29.078c10.343-15.734,16.637-36.64,16.637-59.595c0-11.539-1.586-22.54-4.513-32.639
		c5.977,3.684,13.173,5.806,20.881,5.806c20.881,0,29.639-18.393,37.811-35.006C271.214,190.625,266.189,185.064,266.189,185.064z
		 M83.111,219.801c-1.195,5.879-9.27,6.977-20.857,6.001c-11.587-0.951-21.808-16.393-19.369-23.858c0,0,13.466,1.22,23.248,3.244
		C75.939,207.189,84.331,213.946,83.111,219.801z M133.778,241.341c-1.439,10.148-8.928,17.491-16.759,16.393
		c-7.831-1.098-13.002-10.221-11.563-20.393c1.415-10.148,8.928-17.515,16.759-16.393
		C130.021,222.045,135.217,231.168,133.778,241.341z M171.832,258.465c-7.855,0.854-15.124-6.708-16.222-16.93
		c-1.122-10.197,4.342-19.149,12.221-20.003c7.855-0.854,15.124,6.733,16.222,16.929
		C185.152,248.659,179.687,257.612,171.832,258.465z M225.792,228.388c-9.489,4.684-22.199,1.39-26.175-3.562
		c-0.561-0.732-0.951-1.512-1.122-2.293c-0.024-0.122-0.049-0.244-0.049-0.366c-0.756-5.83,10.685-8.611,20.711-10.685
		c10.221-2.122,21.394-7.562,21.394-7.562C241.819,209.994,235.16,223.753,225.792,228.388z"/>
	<linearGradient id="SVGID_6_" gradientUnits="userSpaceOnUse" x1="229.8443" y1="197.7389" x2="210.2146" y2="231.7386">
		<stop  offset="0" style="stop-color:#754C29"/>
		<stop  offset="0.1511" style="stop-color:#995127"/>
		<stop  offset="0.9901" style="stop-color:#CB8621"/>
	</linearGradient>
	<path fill="url(#SVGID_6_)" d="M225.792,228.388c-9.489,4.684-22.199,1.39-26.175-3.562c-0.561-0.732-0.951-1.512-1.122-2.293
		c-0.024-0.122-0.049-0.244-0.049-0.366c-0.756-5.83,10.685-8.611,20.711-10.685c10.221-2.122,21.394-7.562,21.394-7.562
		C241.819,209.994,235.16,223.753,225.792,228.388z"/>
	<path fill="#FDC490" d="M225.792,228.388c-9.489,4.684-22.199,1.39-26.175-3.562c-0.561-0.732-0.951-1.512-1.122-2.293
		c-0.024-0.122-0.049-0.244-0.049-0.366c-0.756-5.83,10.685-8.611,20.711-10.685c10.221-2.122,21.394-7.562,21.394-7.562
		C241.819,209.994,235.16,223.753,225.792,228.388z"/>
	<linearGradient id="SVGID_7_" gradientUnits="userSpaceOnUse" x1="67.1826" y1="203.9568" x2="55.7372" y2="223.7809">
		<stop  offset="0" style="stop-color:#754C29"/>
		<stop  offset="0.1511" style="stop-color:#995127"/>
		<stop  offset="0.9901" style="stop-color:#CB8621"/>
	</linearGradient>
	<path fill="url(#SVGID_7_)" d="M83.111,219.801c-1.195,5.879-9.27,6.977-20.857,6.001c-11.587-0.951-21.808-16.393-19.369-23.858
		c0,0,13.466,1.22,23.248,3.244C75.939,207.189,84.331,213.946,83.111,219.801z"/>
	<path fill="#FDC490" d="M83.111,219.801c-1.195,5.879-9.27,6.977-20.857,6.001c-11.587-0.951-21.808-16.393-19.369-23.858
		c0,0,13.466,1.22,23.248,3.244C75.939,207.189,84.331,213.946,83.111,219.801z"/>
	<path fill="#FFFFFF" d="M133.778,241.341c-1.439,10.148-8.928,17.491-16.759,16.393c-7.831-1.098-13.002-10.221-11.563-20.393
		c1.415-10.148,8.928-17.515,16.759-16.393C130.021,222.045,135.217,231.168,133.778,241.341z"/>
	<path fill="#FFFFFF" d="M171.832,258.465c-7.855,0.854-15.124-6.708-16.222-16.93c-1.122-10.197,4.342-19.149,12.221-20.003
		c7.855-0.854,15.124,6.733,16.222,16.929C185.152,248.659,179.687,257.612,171.832,258.465z"/>
	<ellipse cx="173.053" cy="241.371" rx="7.699" ry="12.099"/>
	<ellipse cx="122.436" cy="241.371" rx="7.699" ry="12.099"/>
	<linearGradient id="SVGID_8_" gradientUnits="userSpaceOnUse" x1="98.529" y1="557.8767" x2="19.9423" y2="693.9929">
		<stop  offset="0" style="stop-color:#754C29"/>
		<stop  offset="0.1511" style="stop-color:#995127"/>
		<stop  offset="0.9901" style="stop-color:#CB8621"/>
	</linearGradient>
	<path fill="url(#SVGID_8_)" d="M72.244,542.701l-4.441,172.172H56.108L53.443,532.19l2.442,1.555
		c4.072,2.665,8.364,5.033,12.806,7.254C69.876,541.591,71.06,542.183,72.244,542.701z"/>
	<path d="M56.099,714.843l-2.73,16.303l18.358,0.546l-3.963-16.849C63.854,714.843,60.333,714.843,56.099,714.843z"/>
	<path d="M95.882,721.787l18.125,0.138l-4.098-16.829c-3.729,0-8.064,0-11.664,0L95.882,721.787z"/>
	<linearGradient id="SVGID_9_" gradientUnits="userSpaceOnUse" x1="137.3481" y1="568.6755" x2="68.4928" y2="687.9365">
		<stop  offset="0" style="stop-color:#754C29"/>
		<stop  offset="0.1511" style="stop-color:#995127"/>
		<stop  offset="0.9901" style="stop-color:#CB8621"/>
	</linearGradient>
	<path fill="url(#SVGID_9_)" d="M113.77,555.063l-3.849,150.04H98.226l-2.221-153.741c0.888,0.296,1.851,0.518,2.813,0.74
		C103.703,553.36,108.662,554.322,113.77,555.063z"/>
	<linearGradient id="SVGID_10_" gradientUnits="userSpaceOnUse" x1="228.9895" y1="561.2579" x2="151.3641" y2="695.709">
		<stop  offset="0" style="stop-color:#754C29"/>
		<stop  offset="0.1511" style="stop-color:#995127"/>
		<stop  offset="0.9901" style="stop-color:#CB8621"/>
	</linearGradient>
	<path fill="url(#SVGID_10_)" d="M199.412,544.181l-4.515,169.952h-11.621l-2.443-163.29
		C187.272,548.993,193.416,546.772,199.412,544.181z"/>
	<path d="M183.229,714.102l-3.285,17.179l18.297,0.138l-3.32-17.317C190.98,714.102,187.46,714.102,183.229,714.102z"/>
	<linearGradient id="SVGID_11_" gradientUnits="userSpaceOnUse" x1="189.2249" y1="571.6488" x2="111.4074" y2="706.4326">
		<stop  offset="0" style="stop-color:#754C29"/>
		<stop  offset="0.1511" style="stop-color:#995127"/>
		<stop  offset="0.9901" style="stop-color:#CB8621"/>
	</linearGradient>
	<path fill="url(#SVGID_11_)" d="M160.625,555.137l-4.441,170.395h-11.695l-2.517-168.693c3.997-0.148,7.92-0.37,11.77-0.814
		C156.11,555.803,158.405,555.507,160.625,555.137z"/>
	<path d="M144.475,725.531l-1.734,17.191l17.993,0.135l-4.566-17.326C152.226,725.531,148.706,725.531,144.475,725.531z"/>
	<g>
		<linearGradient id="SVGID_12_" gradientUnits="userSpaceOnUse" x1="111.8069" y1="327.0737" x2="173.1334" y2="327.0737">
			<stop  offset="0" style="stop-color:#3D3016"/>
			<stop  offset="1" style="stop-color:#000000"/>
		</linearGradient>
		<ellipse fill="url(#SVGID_12_)" cx="142.47" cy="327.074" rx="30.663" ry="18.653"/>
		<linearGradient id="SVGID_13_" gradientUnits="userSpaceOnUse" x1="113.0313" y1="326.9004" x2="172.7533" y2="326.9004">
			<stop  offset="0" style="stop-color:#3D3016"/>
			<stop  offset="1" style="stop-color:#000000"/>
		</linearGradient>
		<ellipse fill="url(#SVGID_13_)" cx="142.892" cy="326.9" rx="29.861" ry="18.167"/>
		<linearGradient id="SVGID_14_" gradientUnits="userSpaceOnUse" x1="114.2558" y1="326.7271" x2="172.3733" y2="326.7271">
			<stop  offset="0" style="stop-color:#3D3016"/>
			<stop  offset="1" style="stop-color:#000000"/>
		</linearGradient>
		<ellipse fill="url(#SVGID_14_)" cx="143.315" cy="326.727" rx="29.059" ry="17.68"/>
		<linearGradient id="SVGID_15_" gradientUnits="userSpaceOnUse" x1="115.4802" y1="326.5538" x2="171.9932" y2="326.5538">
			<stop  offset="0" style="stop-color:#3D3016"/>
			<stop  offset="1" style="stop-color:#000000"/>
		</linearGradient>
		<ellipse fill="url(#SVGID_15_)" cx="143.737" cy="326.554" rx="28.257" ry="17.194"/>
		<linearGradient id="SVGID_16_" gradientUnits="userSpaceOnUse" x1="116.7046" y1="326.3805" x2="171.6131" y2="326.3805">
			<stop  offset="0" style="stop-color:#3D3016"/>
			<stop  offset="1" style="stop-color:#000000"/>
		</linearGradient>
		<ellipse fill="url(#SVGID_16_)" cx="144.159" cy="326.38" rx="27.454" ry="16.707"/>
		<linearGradient id="SVGID_17_" gradientUnits="userSpaceOnUse" x1="117.9291" y1="326.2072" x2="171.2331" y2="326.2072">
			<stop  offset="0" style="stop-color:#3D3016"/>
			<stop  offset="1" style="stop-color:#000000"/>
		</linearGradient>
		<ellipse fill="url(#SVGID_17_)" cx="144.581" cy="326.207" rx="26.652" ry="16.221"/>
		<linearGradient id="SVGID_18_" gradientUnits="userSpaceOnUse" x1="119.1535" y1="326.0339" x2="170.853" y2="326.0339">
			<stop  offset="0" style="stop-color:#3D3016"/>
			<stop  offset="1" style="stop-color:#000000"/>
		</linearGradient>
		<ellipse fill="url(#SVGID_18_)" cx="145.003" cy="326.034" rx="25.85" ry="15.734"/>
		<linearGradient id="SVGID_19_" gradientUnits="userSpaceOnUse" x1="120.3779" y1="325.8606" x2="170.4729" y2="325.8606">
			<stop  offset="0" style="stop-color:#3D3016"/>
			<stop  offset="1" style="stop-color:#000000"/>
		</linearGradient>
		<ellipse fill="url(#SVGID_19_)" cx="145.425" cy="325.861" rx="25.048" ry="15.248"/>
		<linearGradient id="SVGID_20_" gradientUnits="userSpaceOnUse" x1="121.6023" y1="325.6873" x2="170.0929" y2="325.6873">
			<stop  offset="0" style="stop-color:#3D3016"/>
			<stop  offset="1" style="stop-color:#000000"/>
		</linearGradient>
		<ellipse fill="url(#SVGID_20_)" cx="145.848" cy="325.687" rx="24.245" ry="14.761"/>
		<linearGradient id="SVGID_21_" gradientUnits="userSpaceOnUse" x1="122.8268" y1="325.514" x2="169.7128" y2="325.514">
			<stop  offset="0" style="stop-color:#3D3016"/>
			<stop  offset="1" style="stop-color:#000000"/>
		</linearGradient>
		<ellipse fill="url(#SVGID_21_)" cx="146.27" cy="325.514" rx="23.443" ry="14.275"/>
		<linearGradient id="SVGID_22_" gradientUnits="userSpaceOnUse" x1="124.0512" y1="325.3407" x2="169.3327" y2="325.3407">
			<stop  offset="0" style="stop-color:#3D3016"/>
			<stop  offset="1" style="stop-color:#000000"/>
		</linearGradient>
		<ellipse fill="url(#SVGID_22_)" cx="146.692" cy="325.341" rx="22.641" ry="13.788"/>
		<linearGradient id="SVGID_23_" gradientUnits="userSpaceOnUse" x1="125.2756" y1="325.1674" x2="168.9527" y2="325.1674">
			<stop  offset="0" style="stop-color:#3D3016"/>
			<stop  offset="1" style="stop-color:#000000"/>
		</linearGradient>
		<ellipse fill="url(#SVGID_23_)" cx="147.114" cy="325.167" rx="21.839" ry="13.302"/>
		<linearGradient id="SVGID_24_" gradientUnits="userSpaceOnUse" x1="126.5" y1="324.9941" x2="168.5726" y2="324.9941">
			<stop  offset="0" style="stop-color:#3D3016"/>
			<stop  offset="1" style="stop-color:#000000"/>
		</linearGradient>
		<ellipse fill="url(#SVGID_24_)" cx="147.536" cy="324.994" rx="21.036" ry="12.815"/>
		<linearGradient id="SVGID_25_" gradientUnits="userSpaceOnUse" x1="127.7245" y1="324.8209" x2="168.1926" y2="324.8209">
			<stop  offset="0" style="stop-color:#3D3016"/>
			<stop  offset="1" style="stop-color:#000000"/>
		</linearGradient>
		<ellipse fill="url(#SVGID_25_)" cx="147.959" cy="324.821" rx="20.234" ry="12.329"/>
		<linearGradient id="SVGID_26_" gradientUnits="userSpaceOnUse" x1="128.9489" y1="324.6476" x2="167.8125" y2="324.6476">
			<stop  offset="0" style="stop-color:#3D3016"/>
			<stop  offset="1" style="stop-color:#000000"/>
		</linearGradient>
		<ellipse fill="url(#SVGID_26_)" cx="148.381" cy="324.648" rx="19.432" ry="11.842"/>
		<linearGradient id="SVGID_27_" gradientUnits="userSpaceOnUse" x1="130.1733" y1="324.4743" x2="167.4324" y2="324.4743">
			<stop  offset="0" style="stop-color:#3D3016"/>
			<stop  offset="1" style="stop-color:#000000"/>
		</linearGradient>
		<ellipse fill="url(#SVGID_27_)" cx="148.803" cy="324.474" rx="18.63" ry="11.356"/>
		<linearGradient id="SVGID_28_" gradientUnits="userSpaceOnUse" x1="131.3978" y1="324.301" x2="167.0524" y2="324.301">
			<stop  offset="0" style="stop-color:#3D3016"/>
			<stop  offset="1" style="stop-color:#000000"/>
		</linearGradient>
		<ellipse fill="url(#SVGID_28_)" cx="149.225" cy="324.301" rx="17.827" ry="10.869"/>
		<linearGradient id="SVGID_29_" gradientUnits="userSpaceOnUse" x1="132.6222" y1="324.1277" x2="166.6723" y2="324.1277">
			<stop  offset="0" style="stop-color:#3D3016"/>
			<stop  offset="1" style="stop-color:#000000"/>
		</linearGradient>
		<ellipse fill="url(#SVGID_29_)" cx="149.647" cy="324.128" rx="17.025" ry="10.383"/>
		<linearGradient id="SVGID_30_" gradientUnits="userSpaceOnUse" x1="133.8466" y1="323.9544" x2="166.2922" y2="323.9544">
			<stop  offset="0" style="stop-color:#3D3016"/>
			<stop  offset="1" style="stop-color:#000000"/>
		</linearGradient>
		<ellipse fill="url(#SVGID_30_)" cx="150.069" cy="323.954" rx="16.223" ry="9.896"/>
		<linearGradient id="SVGID_31_" gradientUnits="userSpaceOnUse" x1="135.071" y1="323.7811" x2="165.9122" y2="323.7811">
			<stop  offset="0" style="stop-color:#3D3016"/>
			<stop  offset="1" style="stop-color:#000000"/>
		</linearGradient>
		<ellipse fill="url(#SVGID_31_)" cx="150.492" cy="323.781" rx="15.421" ry="9.41"/>
		<linearGradient id="SVGID_32_" gradientUnits="userSpaceOnUse" x1="136.2955" y1="323.6078" x2="165.5321" y2="323.6078">
			<stop  offset="0" style="stop-color:#3D3016"/>
			<stop  offset="1" style="stop-color:#000000"/>
		</linearGradient>
		<ellipse fill="url(#SVGID_32_)" cx="150.914" cy="323.608" rx="14.618" ry="8.923"/>
		<linearGradient id="SVGID_33_" gradientUnits="userSpaceOnUse" x1="137.5199" y1="323.4345" x2="165.152" y2="323.4345">
			<stop  offset="0" style="stop-color:#3D3016"/>
			<stop  offset="1" style="stop-color:#000000"/>
		</linearGradient>
		<ellipse fill="url(#SVGID_33_)" cx="151.336" cy="323.435" rx="13.816" ry="8.437"/>
		<linearGradient id="SVGID_34_" gradientUnits="userSpaceOnUse" x1="138.7443" y1="323.2612" x2="164.772" y2="323.2612">
			<stop  offset="0" style="stop-color:#3D3016"/>
			<stop  offset="1" style="stop-color:#000000"/>
		</linearGradient>
		<ellipse fill="url(#SVGID_34_)" cx="151.758" cy="323.261" rx="13.014" ry="7.95"/>
		<linearGradient id="SVGID_35_" gradientUnits="userSpaceOnUse" x1="139.9687" y1="323.0879" x2="164.3919" y2="323.0879">
			<stop  offset="0" style="stop-color:#3D3016"/>
			<stop  offset="1" style="stop-color:#000000"/>
		</linearGradient>
		<ellipse fill="url(#SVGID_35_)" cx="152.18" cy="323.088" rx="12.212" ry="7.464"/>
		<linearGradient id="SVGID_36_" gradientUnits="userSpaceOnUse" x1="141.1932" y1="322.9146" x2="164.0118" y2="322.9146">
			<stop  offset="0" style="stop-color:#3D3016"/>
			<stop  offset="1" style="stop-color:#000000"/>
		</linearGradient>
		<ellipse fill="url(#SVGID_36_)" cx="152.602" cy="322.915" rx="11.409" ry="6.977"/>
		<linearGradient id="SVGID_37_" gradientUnits="userSpaceOnUse" x1="142.4176" y1="322.7413" x2="163.6318" y2="322.7413">
			<stop  offset="0" style="stop-color:#3D3016"/>
			<stop  offset="1" style="stop-color:#000000"/>
		</linearGradient>
		<ellipse fill="url(#SVGID_37_)" cx="153.025" cy="322.741" rx="10.607" ry="6.49"/>
		<linearGradient id="SVGID_38_" gradientUnits="userSpaceOnUse" x1="143.642" y1="322.5681" x2="163.2517" y2="322.5681">
			<stop  offset="0" style="stop-color:#3D3016"/>
			<stop  offset="1" style="stop-color:#000000"/>
		</linearGradient>
		<ellipse fill="url(#SVGID_38_)" cx="153.447" cy="322.568" rx="9.805" ry="6.004"/>
		<linearGradient id="SVGID_39_" gradientUnits="userSpaceOnUse" x1="144.8664" y1="322.3947" x2="162.8716" y2="322.3947">
			<stop  offset="0" style="stop-color:#3D3016"/>
			<stop  offset="1" style="stop-color:#000000"/>
		</linearGradient>
		<ellipse fill="url(#SVGID_39_)" cx="153.869" cy="322.395" rx="9.003" ry="5.517"/>
		<linearGradient id="SVGID_40_" gradientUnits="userSpaceOnUse" x1="146.0909" y1="322.2215" x2="162.4916" y2="322.2215">
			<stop  offset="0" style="stop-color:#3D3016"/>
			<stop  offset="1" style="stop-color:#000000"/>
		</linearGradient>
		<ellipse fill="url(#SVGID_40_)" cx="154.291" cy="322.221" rx="8.2" ry="5.031"/>
		<linearGradient id="SVGID_41_" gradientUnits="userSpaceOnUse" x1="147.3153" y1="322.0482" x2="162.1115" y2="322.0482">
			<stop  offset="0" style="stop-color:#3D3016"/>
			<stop  offset="1" style="stop-color:#000000"/>
		</linearGradient>
		<ellipse fill="url(#SVGID_41_)" cx="154.713" cy="322.048" rx="7.398" ry="4.544"/>
		<linearGradient id="SVGID_42_" gradientUnits="userSpaceOnUse" x1="148.5397" y1="321.8749" x2="161.7314" y2="321.8749">
			<stop  offset="0" style="stop-color:#3D3016"/>
			<stop  offset="1" style="stop-color:#000000"/>
		</linearGradient>
		<ellipse fill="url(#SVGID_42_)" cx="155.136" cy="321.875" rx="6.596" ry="4.058"/>
		<linearGradient id="SVGID_43_" gradientUnits="userSpaceOnUse" x1="149.7641" y1="321.7016" x2="161.3514" y2="321.7016">
			<stop  offset="0" style="stop-color:#3D3016"/>
			<stop  offset="1" style="stop-color:#000000"/>
		</linearGradient>
		<ellipse fill="url(#SVGID_43_)" cx="155.558" cy="321.702" rx="5.794" ry="3.571"/>
	</g>
	<path fill="#FDC490" d="M274.946,607.838"/>
</g>
</svg>
